<svg width="40" height="40" viewBox="0 0 40 40" fill="none" xmlns="http://www.w3.org/2000/svg">
<path d="M0 20C0 8.95431 8.95431 0 20 0C31.0457 0 40 8.95431 40 20C40 31.0457 31.0457 40 20 40C8.95431 40 0 31.0457 0 20Z" fill="#F9FAFB"/>
<path d="M28.3332 15.833L20.8407 20.6055C20.5864 20.7532 20.2976 20.831 20.0036 20.831C19.7096 20.831 19.4208 20.7532 19.1665 20.6055L11.6665 15.833" stroke="#35393D" stroke-width="1.3" stroke-linecap="round" stroke-linejoin="round"/>
<path d="M26.6665 13.333H13.3332C12.4127 13.333 11.6665 14.0792 11.6665 14.9997V24.9997C11.6665 25.9201 12.4127 26.6663 13.3332 26.6663H26.6665C27.587 26.6663 28.3332 25.9201 28.3332 24.9997V14.9997C28.3332 14.0792 27.587 13.333 26.6665 13.333Z" stroke="#35393D" stroke-width="1.3" stroke-linecap="round" stroke-linejoin="round"/>
</svg>
