<svg width="40" height="40" viewBox="0 0 40 40" fill="none" xmlns="http://www.w3.org/2000/svg">
<path d="M0 20C0 8.95431 8.95431 0 20 0C31.0457 0 40 8.95431 40 20C40 31.0457 31.0457 40 20 40C8.95431 40 0 31.0457 0 20Z" fill="#F9FAFB"/>
<path d="M21.5265 23.807C21.6986 23.886 21.8925 23.9041 22.0762 23.8582C22.26 23.8123 22.4226 23.7052 22.5373 23.5545L22.8332 23.167C22.9884 22.96 23.1897 22.792 23.4211 22.6763C23.6526 22.5606 23.9078 22.5003 24.1665 22.5003H26.6665C27.1085 22.5003 27.5325 22.6759 27.845 22.9885C28.1576 23.301 28.3332 23.725 28.3332 24.167V26.667C28.3332 27.109 28.1576 27.5329 27.845 27.8455C27.5325 28.1581 27.1085 28.3337 26.6665 28.3337C22.6883 28.3337 18.8729 26.7533 16.0599 23.9403C13.2469 21.1272 11.6665 17.3119 11.6665 13.3337C11.6665 12.8916 11.8421 12.4677 12.1547 12.1551C12.4672 11.8426 12.8911 11.667 13.3332 11.667H15.8332C16.2752 11.667 16.6991 11.8426 17.0117 12.1551C17.3242 12.4677 17.4998 12.8916 17.4998 13.3337V15.8337C17.4998 16.0924 17.4396 16.3476 17.3239 16.579C17.2082 16.8104 17.0402 17.0117 16.8332 17.167L16.4432 17.4595C16.2902 17.5763 16.1824 17.7425 16.138 17.9298C16.0936 18.1171 16.1155 18.314 16.1998 18.487C17.3387 20.8002 19.2119 22.671 21.5265 23.807Z" stroke="#35393D" stroke-width="1.3" stroke-linecap="round" stroke-linejoin="round"/>
</svg>
