<svg width="70" height="70" viewBox="0 0 70 70" fill="none" xmlns="http://www.w3.org/2000/svg">
<rect width="70" height="70" rx="20" fill="#0B54A0"/>
<g clip-path="url(#clip0_2038_4636)">
<path d="M41.1562 24.9313L41.8652 21.0038C41.8829 20.9118 42.0112 20.9032 42.041 20.992L43.1942 24.9006C43.2222 24.9839 43.3402 24.9833 43.3673 24.8998L44.4811 20.9927C44.51 20.9036 44.6383 20.9109 44.657 21.0026L45.4079 24.9313" stroke="white" stroke-width="1.6" stroke-miterlimit="10" stroke-linecap="round" stroke-linejoin="round"/>
<path d="M47.284 26.5678C47.1659 26.4167 47.4855 26.9628 48.513 26.9203C49.6682 26.8726 49.6161 25.5706 49.6161 25.5706V22.3887" stroke="white" stroke-width="1.6" stroke-miterlimit="10" stroke-linecap="round" stroke-linejoin="round"/>
<path d="M48.2558 25.1102C49.0073 25.1102 49.6166 24.501 49.6166 23.7495C49.6166 22.9979 49.0073 22.3887 48.2558 22.3887C47.5043 22.3887 46.895 22.9979 46.895 23.7495C46.895 24.501 47.5043 25.1102 48.2558 25.1102Z" stroke="white" stroke-width="1.6" stroke-miterlimit="10" stroke-linecap="round" stroke-linejoin="round"/>
<path d="M25.1395 31.0879L24.3748 32.2716C23.6287 33.4264 23.1211 34.6367 22.8267 35.8595C22.6178 37.3139 22.2799 40.3027 22.5999 40.6227" stroke="white" stroke-width="1.6" stroke-miterlimit="10" stroke-linecap="round" stroke-linejoin="round"/>
<path d="M45.4499 40.1305C45.8278 37.5424 45.3274 34.7765 43.7088 32.2715L34.5943 18.164C34.3353 17.763 33.7487 17.763 33.4896 18.164L31.2661 21.6054" stroke="white" stroke-width="1.6" stroke-miterlimit="10" stroke-linecap="round" stroke-linejoin="round"/>
<path d="M25.8384 46.5996C27.8698 48.6802 30.7142 50.0262 34.0419 50.0262H34.042C36.612 50.0262 38.8941 49.2237 40.736 47.9001" stroke="white" stroke-width="1.6" stroke-miterlimit="10" stroke-linecap="round" stroke-linejoin="round"/>
<path d="M22.5156 38.5938C22.5228 39.3525 22.6056 40.1037 22.7598 40.8369" stroke="white" stroke-width="1.6" stroke-miterlimit="10" stroke-linecap="round" stroke-linejoin="round"/>
<path d="M26.4062 34.4902V40.1555" stroke="white" stroke-width="1.6" stroke-miterlimit="10" stroke-linecap="round" stroke-linejoin="round"/>
<path d="M30.3267 34.4902V40.1555" stroke="white" stroke-width="1.6" stroke-miterlimit="10" stroke-linecap="round" stroke-linejoin="round"/>
<path d="M26.4062 37.2256H30.3267" stroke="white" stroke-width="1.6" stroke-miterlimit="10" stroke-linecap="round" stroke-linejoin="round"/>
<path d="M39.4694 39.9065C41.0338 39.9065 42.302 38.6383 42.302 37.0739C42.302 35.5094 41.0338 34.2412 39.4694 34.2412C37.9049 34.2412 36.6367 35.5094 36.6367 37.0739C36.6367 38.6383 37.9049 39.9065 39.4694 39.9065Z" stroke="white" stroke-width="1.6" stroke-miterlimit="10" stroke-linecap="round" stroke-linejoin="round"/>
<path d="M35.3859 44.0325C35.3859 44.0325 33.0799 44.0615 32.9707 44.0251C32.8614 43.9887 33.1458 43.7963 34.6577 41.6361C34.94 41.2327 35.0955 40.8923 35.1616 40.6071L35.185 40.4237C35.185 39.7539 34.6421 39.2109 33.9722 39.2109C33.3829 39.2109 32.8917 39.6313 32.7822 40.1887" stroke="white" stroke-width="1.6" stroke-miterlimit="10" stroke-linecap="round" stroke-linejoin="round"/>
<path d="M20.1992 43.1738V47.44" stroke="white" stroke-width="1.6" stroke-miterlimit="10" stroke-linecap="round" stroke-linejoin="round"/>
<path d="M22.4942 43.2275L20.3359 45.2115L22.6457 47.4399" stroke="white" stroke-width="1.6" stroke-miterlimit="10" stroke-linecap="round" stroke-linejoin="round"/>
<path d="M46.5487 44.6931C46.2081 44.4629 45.7974 44.3286 45.3554 44.3286C44.1767 44.3286 43.2212 45.2842 43.2212 46.4628C43.2212 47.6415 44.1767 48.597 45.3554 48.597C45.8342 48.597 46.2279 48.4395 46.5267 48.1733C46.5885 48.1182 46.6463 48.0585 46.6999 47.9945" stroke="white" stroke-width="1.6" stroke-miterlimit="10" stroke-linecap="round" stroke-linejoin="round"/>
<path d="M49.5905 48.4052C50.3859 48.4052 51.0307 47.7604 51.0307 46.9651C51.0307 46.1697 50.3859 45.5249 49.5905 45.5249C48.7952 45.5249 48.1504 46.1697 48.1504 46.9651C48.1504 47.7604 48.7952 48.4052 49.5905 48.4052Z" stroke="white" stroke-width="1.6" stroke-miterlimit="10" stroke-linecap="round" stroke-linejoin="round"/>
<path d="M51.0308 45.3335V48.5968" stroke="white" stroke-width="1.6" stroke-miterlimit="10" stroke-linecap="round" stroke-linejoin="round"/>
<path d="M47.1256 53.0129C50.743 53.0129 53.6755 50.0804 53.6755 46.463C53.6755 42.8456 50.743 39.9131 47.1256 39.9131C43.5082 39.9131 40.5757 42.8456 40.5757 46.463C40.5757 50.0804 43.5082 53.0129 47.1256 53.0129Z" stroke="white" stroke-width="1.6" stroke-miterlimit="10" stroke-linecap="round" stroke-linejoin="round"/>
<path d="M23.4529 40.8369H19.3923C19.0515 40.8369 18.7366 41.0187 18.5662 41.3139L16.536 44.8304C16.3656 45.1255 16.3656 45.4891 16.536 45.7843L18.5662 49.3007C18.7366 49.5959 19.0515 49.7777 19.3923 49.7777H23.4528C23.7936 49.7777 24.1085 49.5959 24.2789 49.3007L26.3091 45.7843C26.4795 45.4891 26.4795 45.1255 26.3091 44.8304L24.2789 41.3139C24.1086 41.0187 23.7937 40.8369 23.4529 40.8369Z" stroke="white" stroke-width="1.6" stroke-miterlimit="10" stroke-linecap="round" stroke-linejoin="round"/>
<path d="M18.4571 25.7811C19.1247 28.8168 21.8299 31.0886 25.0662 31.0886C28.8038 31.0886 31.8336 28.0587 31.8336 24.3212C31.8336 20.5837 28.8038 17.5537 25.0662 17.5537C21.7644 17.5537 19.0153 19.9185 18.4191 23.0467" stroke="white" stroke-width="1.6" stroke-miterlimit="10" stroke-linecap="round" stroke-linejoin="round"/>
<path d="M21.1616 26.4589V22.021L24.1621 26.3658C24.2177 26.4462 24.2773 26.4068 24.2773 26.3091L24.2358 22.0127" stroke="white" stroke-width="1.6" stroke-miterlimit="10" stroke-linecap="round" stroke-linejoin="round"/>
<path d="M27.4709 26.2596C28.2994 26.2596 28.971 25.5879 28.971 24.7594C28.971 23.9309 28.2994 23.2593 27.4709 23.2593C26.6423 23.2593 25.9707 23.9309 25.9707 24.7594C25.9707 25.5879 26.6423 26.2596 27.4709 26.2596Z" stroke="white" stroke-width="1.6" stroke-miterlimit="10" stroke-linecap="round" stroke-linejoin="round"/>
<path d="M28.9712 23.0596V26.4589" stroke="white" stroke-width="1.6" stroke-miterlimit="10" stroke-linecap="round" stroke-linejoin="round"/>
<path d="M17.9493 36.7892C19.2545 36.7892 20.3127 35.7311 20.3127 34.4259C20.3127 33.1206 19.2545 32.0625 17.9493 32.0625C16.644 32.0625 15.5859 33.1206 15.5859 34.4259C15.5859 35.7311 16.644 36.7892 17.9493 36.7892Z" stroke="white" stroke-width="1.6" stroke-miterlimit="10" stroke-linecap="round" stroke-linejoin="round"/>
<path d="M52.7912 33.0723H50.5831C50.3978 33.0723 50.2266 33.1712 50.1339 33.3316L49.0299 35.2438C48.9373 35.4043 48.9373 35.602 49.0299 35.7626L50.1339 37.6748C50.2266 37.8352 50.3978 37.9341 50.5831 37.9341H52.7912C52.9765 37.9341 53.1478 37.8352 53.2404 37.6748L54.3444 35.7626C54.4371 35.6021 54.4371 35.4044 54.3444 35.2438L53.2404 33.3316C53.1478 33.1712 52.9765 33.0723 52.7912 33.0723Z" stroke="white" stroke-width="1.6" stroke-miterlimit="10" stroke-linecap="round" stroke-linejoin="round"/>
<path d="M42.8008 30.8658H48.7585C49.1512 30.8658 49.5141 30.6563 49.7104 30.3163L53.0823 24.4759C53.2787 24.1358 53.2787 23.7168 53.0823 23.3767L49.7104 17.5363C49.5141 17.1963 49.1512 16.9868 48.7585 16.9868H46.5627" stroke="white" stroke-width="1.6" stroke-miterlimit="10" stroke-linecap="round" stroke-linejoin="round"/>
<path d="M47 16.9868H42.0146C41.6219 16.9868 41.259 17.1963 41.0627 17.5363L37.8188 23.1549" stroke="white" stroke-width="1.6" stroke-miterlimit="10" stroke-linecap="round" stroke-linejoin="round"/>
</g>
<defs>
<clipPath id="clip0_2038_4636">
<rect width="40" height="40" fill="white" transform="translate(15 15)"/>
</clipPath>
</defs>
</svg>
