<svg width="70" height="70" viewBox="0 0 70 70" fill="none" xmlns="http://www.w3.org/2000/svg">
<rect width="70" height="70" rx="20" fill="#0B54A0"/>
<g clip-path="url(#clip0_2038_4495)">
<mask id="mask0_2038_4495" style="mask-type:luminance" maskUnits="userSpaceOnUse" x="15" y="15" width="40" height="40">
<path d="M15 15H55V55H15V15Z" fill="white"/>
</mask>
<g mask="url(#mask0_2038_4495)">
<path d="M39.6094 53.8281L30.2344 50.7031V19.2969L39.6094 16.1719V53.8281Z" stroke="white" stroke-width="1.6" stroke-miterlimit="10" stroke-linecap="round" stroke-linejoin="round"/>
<path d="M46.7969 35H53.8281" stroke="white" stroke-width="1.6" stroke-miterlimit="10" stroke-linecap="round" stroke-linejoin="round"/>
<path d="M50.7031 31.875L53.8281 35L50.7031 38.125" stroke="white" stroke-width="1.6" stroke-miterlimit="10" stroke-linecap="round" stroke-linejoin="round"/>
<path d="M44.4531 24.8438H51.4844" stroke="white" stroke-width="1.6" stroke-miterlimit="10" stroke-linecap="round" stroke-linejoin="round"/>
<path d="M48.3594 21.7188L51.4844 24.8438L48.3594 27.9688" stroke="white" stroke-width="1.6" stroke-miterlimit="10" stroke-linecap="round" stroke-linejoin="round"/>
<path d="M44.4531 45.1562H51.4844" stroke="white" stroke-width="1.6" stroke-miterlimit="10" stroke-linecap="round" stroke-linejoin="round"/>
<path d="M48.3594 48.2812L51.4844 45.1563L48.3594 42.0313" stroke="white" stroke-width="1.6" stroke-miterlimit="10" stroke-linecap="round" stroke-linejoin="round"/>
<path d="M17.3438 28.75C17.3438 29.3972 16.8191 29.9219 16.1719 29.9219C15.5247 29.9219 15 29.3972 15 28.75C15 28.1028 15.5247 27.5781 16.1719 27.5781C16.8191 27.5781 17.3438 28.1028 17.3438 28.75Z" fill="white"/>
<path d="M23.2031 24.4531C23.2031 25.1003 22.6784 25.625 22.0312 25.625C21.3841 25.625 20.8594 25.1003 20.8594 24.4531C20.8594 23.8059 21.3841 23.2812 22.0312 23.2812C22.6784 23.2812 23.2031 23.8059 23.2031 24.4531Z" fill="white"/>
<path d="M26.3281 31.4844C26.3281 32.1316 25.8034 32.6562 25.1562 32.6562C24.5091 32.6562 23.9844 32.1316 23.9844 31.4844C23.9844 30.8372 24.5091 30.3125 25.1562 30.3125C25.8034 30.3125 26.3281 30.8372 26.3281 31.4844Z" fill="white"/>
<path d="M17.3438 41.25C17.3438 40.6028 16.8191 40.0781 16.1719 40.0781C15.5247 40.0781 15 40.6028 15 41.25C15 41.8972 15.5247 42.4219 16.1719 42.4219C16.8191 42.4219 17.3438 41.8972 17.3438 41.25Z" fill="white"/>
<path d="M23.2031 45.5469C23.2031 44.8997 22.6784 44.375 22.0312 44.375C21.3841 44.375 20.8594 44.8997 20.8594 45.5469C20.8594 46.1941 21.3841 46.7188 22.0312 46.7188C22.6784 46.7188 23.2031 46.1941 23.2031 45.5469Z" fill="white"/>
<path d="M26.3281 38.5156C26.3281 37.8684 25.8034 37.3438 25.1562 37.3438C24.5091 37.3438 23.9844 37.8684 23.9844 38.5156C23.9844 39.1628 24.5091 39.6875 25.1562 39.6875C25.8034 39.6875 26.3281 39.1628 26.3281 38.5156Z" fill="white"/>
<path d="M20.0781 35C20.0781 35.6472 19.5534 36.1719 18.9062 36.1719C18.2591 36.1719 17.7344 35.6472 17.7344 35C17.7344 34.3528 18.2591 33.8281 18.9062 33.8281C19.5534 33.8281 20.0781 34.3528 20.0781 35Z" fill="white"/>
<path d="M36.0938 35C36.0938 35.6472 35.5691 36.1719 34.9219 36.1719C34.2747 36.1719 33.75 35.6472 33.75 35C33.75 34.3528 34.2747 33.8281 34.9219 33.8281C35.5691 33.8281 36.0938 34.3528 36.0938 35Z" fill="white"/>
<path d="M36.0938 24.4531C36.0938 25.1003 35.5691 25.625 34.9219 25.625C34.2747 25.625 33.75 25.1003 33.75 24.4531C33.75 23.8059 34.2747 23.2812 34.9219 23.2812C35.5691 23.2812 36.0938 23.8059 36.0938 24.4531Z" fill="white"/>
<path d="M36.0938 45.5469C36.0938 44.8997 35.5691 44.375 34.9219 44.375C34.2747 44.375 33.75 44.8997 33.75 45.5469C33.75 46.1941 34.2747 46.7188 34.9219 46.7188C35.5691 46.7188 36.0938 46.1941 36.0938 45.5469Z" fill="white"/>
</g>
</g>
<defs>
<clipPath id="clip0_2038_4495">
<rect width="40" height="40" fill="white" transform="translate(15 15)"/>
</clipPath>
</defs>
</svg>
