<svg width="20" height="20" viewBox="0 0 20 20" fill="none" xmlns="http://www.w3.org/2000/svg">
<path d="M6 11.8332C6.66667 10.9999 7.33333 10.3332 8 9.83324C9.25 8.7499 10.3333 8.33324 10.3333 8.33324C10.3333 8.33324 9.75 9.2499 8.83333 10.5832C8.66667 10.9166 8.41667 11.2499 8.16667 11.6666C7.91667 11.9999 7.75 12.4166 7.5 12.8332C7.25 13.2499 7.08333 13.6666 6.83333 14.0832C6.66667 14.4999 6.33333 14.9999 6.16667 15.4166C6 15.8332 5.75 16.3332 5.58333 16.7499C5.5 16.9166 5.41667 17.1666 5.33333 17.3332C8.08333 18.9166 11.75 18.5832 14 16.1666C18.1667 11.6666 14.5 9.7499 18.3333 1.83324C18.3333 1.83324 9.83333 0.0832381 3.75 6.08324C1 8.83324 1 13.2499 3.75 16.0832C3.91667 15.5832 4.08333 15.0832 4.33333 14.5832C4.75 13.5832 5.33333 12.5832 6 11.8332Z" fill="#E8E8E8"/>
</svg>
