<svg width="21" height="21" viewBox="0 0 21 21" fill="none" xmlns="http://www.w3.org/2000/svg">
<path d="M12.103 14.497C12.2837 14.58 12.4873 14.599 12.6802 14.5508C12.8732 14.5026 13.0439 14.3901 13.1644 14.2319L13.475 13.825C13.638 13.6077 13.8494 13.4313 14.0924 13.3098C14.3354 13.1883 14.6033 13.125 14.875 13.125H17.5C17.9641 13.125 18.4092 13.3094 18.7374 13.6376C19.0656 13.9658 19.25 14.4109 19.25 14.875V17.5C19.25 17.9641 19.0656 18.4092 18.7374 18.7374C18.4092 19.0656 17.9641 19.25 17.5 19.25C13.3228 19.25 9.31677 17.5906 6.36307 14.6369C3.40937 11.6832 1.75 7.67716 1.75 3.5C1.75 3.03587 1.93437 2.59075 2.26256 2.26256C2.59075 1.93437 3.03587 1.75 3.5 1.75H6.125C6.58913 1.75 7.03425 1.93437 7.36244 2.26256C7.69063 2.59075 7.875 3.03587 7.875 3.5V6.125C7.875 6.39668 7.81175 6.66463 7.69025 6.90762C7.56875 7.15062 7.39234 7.36199 7.175 7.525L6.7655 7.83213C6.60486 7.95478 6.49164 8.12926 6.44507 8.32593C6.39849 8.5226 6.42144 8.72933 6.51 8.911C7.70585 11.3399 9.67262 13.3042 12.103 14.497Z" stroke="white" stroke-width="1.3" stroke-linecap="round" stroke-linejoin="round"/>
</svg>
