<svg width="52" height="59" viewBox="0 0 52 59" fill="none" xmlns="http://www.w3.org/2000/svg">
<path d="M45.0767 22.1817L45.2183 22.04C46.6446 20.6137 46.6446 18.3011 45.2183 16.8748L30.4133 2.06972C28.9871 0.643428 26.6745 0.643428 25.2482 2.06972L5.13623 22.1817" stroke="#0A4B88" stroke-width="2" stroke-miterlimit="10" stroke-linejoin="round"/>
<path d="M35.0912 22.1817L35.2571 22.0158C33.8784 20.6371 33.8784 18.4019 35.2571 17.0233L30.2645 12.0308C28.8859 13.4094 26.6506 13.4094 25.272 12.0308L15.1211 22.1817" stroke="#0A4B88" stroke-width="2" stroke-miterlimit="10" stroke-linejoin="round"/>
<path d="M45.9065 22.1816H5.51734C3.02254 22.1816 1 24.2042 1 26.699V52.967C1 55.4618 3.02254 57.4844 5.51734 57.4844H45.9065C48.4013 57.4844 50.4238 55.4618 50.4238 52.967V26.699C50.4238 24.2042 48.4013 22.1816 45.9065 22.1816Z" stroke="#0A4B88" stroke-width="2" stroke-miterlimit="10" stroke-linejoin="round"/>
<path d="M50.4238 32.7725H43.3122C39.441 32.7725 36.3027 35.9106 36.3027 39.7819C36.3027 43.6531 39.4409 46.7914 43.3122 46.7914H50.4238" stroke="#0A4B88" stroke-width="2" stroke-miterlimit="10" stroke-linejoin="round"/>
<path d="M43.3633 41.5398C44.2828 41.5398 45.1636 40.7313 45.1211 39.782C45.0785 38.8296 44.3487 38.0242 43.3633 38.0242C42.4438 38.0242 41.5629 38.8326 41.6055 39.782C41.6481 40.7344 42.3779 41.5398 43.3633 41.5398Z" fill="#0A4B88"/>
</svg>
