<svg width="60" height="60" viewBox="0 0 60 60" fill="none" xmlns="http://www.w3.org/2000/svg">
<mask id="mask0_2034_3162" style="mask-type:luminance" maskUnits="userSpaceOnUse" x="0" y="0" width="60" height="60">
<path d="M0 3.8147e-06H60V60H0V3.8147e-06Z" fill="white"/>
</mask>
<g mask="url(#mask0_2034_3162)">
<path d="M47.5781 58.2422H10.0781V55.6641C10.0781 53.0753 12.1768 50.9766 14.7656 50.9766H42.8906C45.4794 50.9766 47.5781 53.0753 47.5781 55.6641V58.2422Z" stroke="#0A4B88" stroke-width="2" stroke-miterlimit="10" stroke-linecap="round" stroke-linejoin="round"/>
<path d="M45.8202 40.4297H50.4098C52.1499 40.4297 53.6283 39.1566 53.8865 37.4355L56.9168 17.2335C56.9409 17.0728 56.953 16.9106 56.953 16.7481C56.953 14.9413 55.4881 13.4766 53.6815 13.4766H44.3228" stroke="#0A4B88" stroke-width="2" stroke-miterlimit="10"/>
<path d="M44.3085 13.2165C44.1704 10.7326 42.116 8.78906 39.6282 8.78906H18.028C15.5402 8.78906 13.4857 10.7326 13.3478 13.2165L13.3334 13.4766H3.04688L12.792 23.2216L11.4561 47.2659C11.3442 49.2811 12.948 50.9766 14.9664 50.9766H42.6899C44.7082 50.9766 46.312 49.2811 46.2001 47.2659L44.3085 13.2165Z" stroke="#0A4B88" stroke-width="2" stroke-miterlimit="10"/>
<path d="M22.9688 43.9453C21.0272 43.9453 19.4531 42.3713 19.4531 40.4297V19.3359C19.4531 17.3944 21.0272 15.8203 22.9688 15.8203C24.9103 15.8203 26.4844 17.3944 26.4844 19.3359V40.4297C26.4844 42.3713 24.9103 43.9453 22.9688 43.9453Z" stroke="#0A4B88" stroke-width="2" stroke-miterlimit="10" stroke-linecap="round" stroke-linejoin="round"/>
<path d="M35.2734 26.3672C35.2734 27.338 34.4864 28.125 33.5156 28.125C32.5448 28.125 31.7578 27.338 31.7578 26.3672C31.7578 25.3964 32.5448 24.6094 33.5156 24.6094C34.4864 24.6094 35.2734 25.3964 35.2734 26.3672Z" fill="#0A4B88"/>
<path d="M35.2734 19.3359C35.2734 20.3067 34.4864 21.0938 33.5156 21.0938C32.5448 21.0938 31.7578 20.3067 31.7578 19.3359C31.7578 18.3652 32.5448 17.5781 33.5156 17.5781C34.4864 17.5781 35.2734 18.3652 35.2734 19.3359Z" fill="#0A4B88"/>
<path d="M35.2734 33.3984C35.2734 34.3692 34.4864 35.1562 33.5156 35.1562C32.5448 35.1562 31.7578 34.3692 31.7578 33.3984C31.7578 32.4277 32.5448 31.6406 33.5156 31.6406C34.4864 31.6406 35.2734 32.4277 35.2734 33.3984Z" fill="#0A4B88"/>
<path d="M35.2734 40.4297C35.2734 41.4005 34.4864 42.1875 33.5156 42.1875C32.5448 42.1875 31.7578 41.4005 31.7578 40.4297C31.7578 39.4589 32.5448 38.6719 33.5156 38.6719C34.4864 38.6719 35.2734 39.4589 35.2734 40.4297Z" fill="#0A4B88"/>
<path d="M34.6875 1.75781H22.9688C20.38 1.75781 18.2812 3.85652 18.2812 6.44531V8.78906H39.375V6.44531C39.375 3.85652 37.2763 1.75781 34.6875 1.75781Z" stroke="#0A4B88" stroke-width="2" stroke-miterlimit="10" stroke-linecap="round" stroke-linejoin="round"/>
</g>
</svg>
