<svg width="54" height="60" viewBox="0 0 54 60" fill="none" xmlns="http://www.w3.org/2000/svg">
<path d="M31.6172 8.14797H11.3647V5.46977C11.3647 3.00121 13.366 1 15.8345 1H27.1474C29.616 1 31.6172 3.00121 31.6172 5.46977V8.14797Z" stroke="#0A4B88" stroke-width="2" stroke-miterlimit="10" stroke-linecap="round" stroke-linejoin="round"/>
<path d="M10.9165 4.57397H1V58.4219H39.9822" stroke="#0A4B88" stroke-width="2" stroke-miterlimit="10" stroke-linejoin="round"/>
<path d="M32.0649 4.57397H41.9815L42.0589 37.609" stroke="#0A4B88" stroke-width="2" stroke-miterlimit="10" stroke-linejoin="round"/>
<path d="M31.7359 21.9673H25.0646V15.2959H17.9166V21.9673H11.2451V29.1152H17.9166V35.7866H25.0646V29.1152H31.7359V21.9673Z" stroke="#0A4B88" stroke-width="2" stroke-miterlimit="10" stroke-linecap="round" stroke-linejoin="round"/>
<path d="M32.6833 42.9346H8.68408" stroke="#0A4B88" stroke-width="2" stroke-miterlimit="10" stroke-linecap="round" stroke-linejoin="round"/>
<path d="M17.9765 50.0825H8.68408" stroke="#0A4B88" stroke-width="2" stroke-miterlimit="10" stroke-linecap="round" stroke-linejoin="round"/>
<path d="M31.1249 49.9695L25.1245 50.0826" stroke="#0A4B88" stroke-width="2" stroke-miterlimit="10" stroke-linecap="round" stroke-linejoin="round"/>
<path d="M41.9818 58.4218C47.5744 58.4218 52.108 53.8881 52.108 48.2955C52.108 42.7029 47.5744 38.1692 41.9818 38.1692C36.3892 38.1692 31.8555 42.7029 31.8555 48.2955C31.8555 53.8881 36.3892 58.4218 41.9818 58.4218Z" stroke="#0A4B88" stroke-width="2" stroke-miterlimit="10" stroke-linecap="round" stroke-linejoin="round"/>
<path d="M38.646 48.1764L40.9095 50.4399L44.9599 46.3894" stroke="#0A4B88" stroke-width="2" stroke-miterlimit="10" stroke-linecap="round" stroke-linejoin="round"/>
</svg>
