<svg width="60" height="60" viewBox="0 0 60 60" fill="none" xmlns="http://www.w3.org/2000/svg">
<path d="M13.1187 26.5024V45.4675" stroke="#0A4B88" stroke-width="2" stroke-miterlimit="10" stroke-linecap="round" stroke-linejoin="round"/>
<path d="M25.1348 7.32471V11.2951L16.2614 14.3112C14.3824 14.9499 13.1187 16.7141 13.1187 18.6987" stroke="#0A4B88" stroke-width="2" stroke-miterlimit="10" stroke-linecap="round" stroke-linejoin="round"/>
<path d="M46.8812 18.6891C46.8812 16.7092 45.6234 14.948 43.7506 14.3057L34.9727 11.2951V7.32471" stroke="#0A4B88" stroke-width="2" stroke-miterlimit="10" stroke-linecap="round" stroke-linejoin="round"/>
<path d="M46.8813 45.4677V26.6943" stroke="#0A4B88" stroke-width="2" stroke-miterlimit="10" stroke-linecap="round" stroke-linejoin="round"/>
<path d="M13.1187 53.6729V56.6549C13.1187 57.7904 14.0392 58.7109 15.1747 58.7109H44.8251C45.9607 58.7109 46.8812 57.7904 46.8812 56.6549V53.5569" stroke="#0A4B88" stroke-width="2" stroke-miterlimit="10" stroke-linecap="round" stroke-linejoin="round"/>
<path d="M22.8558 26.2623H12.3852C11.2993 26.2623 10.4189 25.382 10.4189 24.296V20.8647C10.4189 19.7787 11.2993 18.8984 12.3852 18.8984H47.6147C48.7007 18.8984 49.581 19.7787 49.581 20.8647V24.296C49.581 25.382 48.7007 26.2623 47.6147 26.2623H37.1377" stroke="#0A4B88" stroke-width="2" stroke-miterlimit="10" stroke-linecap="round" stroke-linejoin="round"/>
<path d="M37.0022 45.8699H47.6147C48.7007 45.8699 49.581 46.7502 49.581 47.8362V51.2674C49.581 52.3534 48.7007 53.2337 47.6147 53.2337H12.3852C11.2993 53.2337 10.4189 52.3534 10.4189 51.2674V47.8362C10.4189 46.7502 11.2993 45.8699 12.3852 45.8699H23.0494" stroke="#0A4B88" stroke-width="2" stroke-miterlimit="10" stroke-linecap="round" stroke-linejoin="round"/>
<path d="M30.0003 47.9456C36.5936 47.9456 41.9385 42.6006 41.9385 36.0073C41.9385 29.414 36.5936 24.0691 30.0003 24.0691C23.4069 24.0691 18.062 29.414 18.062 36.0073C18.062 42.6006 23.4069 47.9456 30.0003 47.9456Z" stroke="#0A4B88" stroke-width="2" stroke-miterlimit="10" stroke-linecap="round" stroke-linejoin="round"/>
<path d="M36.0374 7.09922H23.888C23.0219 7.09922 22.3198 6.39703 22.3198 5.53102V2.85727C22.3198 1.99113 23.022 1.28906 23.888 1.28906H36.0374C36.9036 1.28906 37.6056 1.99125 37.6056 2.85727V5.5309C37.6056 6.39715 36.9036 7.09922 36.0374 7.09922Z" stroke="#0A4B88" stroke-width="2" stroke-miterlimit="10" stroke-linecap="round" stroke-linejoin="round"/>
<path d="M26.7493 40.2648C25.0702 38.5857 24.9463 35.9041 26.4633 34.0773L30 29.8184L33.5367 34.0773C35.0537 35.9041 34.9297 38.5857 33.2506 40.2648C31.4553 42.0601 28.5446 42.0601 26.7493 40.2648Z" stroke="#0A4B88" stroke-width="2" stroke-miterlimit="10" stroke-linecap="round" stroke-linejoin="round"/>
</svg>
