<svg width="35" height="35" viewBox="0 0 35 35" fill="none" xmlns="http://www.w3.org/2000/svg">
<g clip-path="url(#clip0_3268_344)">
<mask id="mask0_3268_344" style="mask-type:luminance" maskUnits="userSpaceOnUse" x="0" y="0" width="35" height="35">
<path d="M26.5152 0H8.48485C3.7988 0 0 3.7988 0 8.48485V26.5152C0 31.2012 3.7988 35 8.48485 35H26.5152C31.2012 35 35 31.2012 35 26.5152V8.48485C35 3.7988 31.2012 0 26.5152 0Z" fill="white"/>
</mask>
<g mask="url(#mask0_3268_344)">
<path d="M35 0H0V35H35V0Z" fill="#100943"/>
<path d="M35 17.5C44.665 17.5 52.5 9.66498 52.5 7.62939e-06C52.5 -9.66499 44.665 -17.5 35 -17.5C25.335 -17.5 17.5 -9.66499 17.5 7.62939e-06C17.5 9.66498 25.335 17.5 35 17.5Z" fill="#ED143B"/>
<path d="M21.6195 16.701H11.2793V12.6092H21.6195C22.2235 12.6092 22.6435 12.7145 22.8543 12.8983C23.065 13.0822 23.1956 13.4232 23.1956 13.9213V15.3905C23.1956 15.9153 23.065 16.2563 22.8543 16.4401C22.6435 16.624 22.2235 16.7026 21.6195 16.7026V16.701ZM22.3289 8.75156H6.89404V26.25H11.2793V20.557H19.3608L23.1956 26.25H28.1062L23.8782 20.5303C25.437 20.2993 26.1369 19.8217 26.7141 19.0344C27.2914 18.2472 27.5809 16.9885 27.5809 15.3088V13.9967C27.5809 13.0005 27.4754 12.2132 27.2914 11.6098C27.1073 11.0064 26.7929 10.4816 26.3461 10.0102C25.8742 9.56396 25.3489 9.24968 24.7181 9.03912C24.0874 8.85529 23.2994 8.75 22.3289 8.75V8.75156Z" fill="white"/>
</g>
</g>
<defs>
<clipPath id="clip0_3268_344">
<rect width="35" height="35" fill="white"/>
</clipPath>
</defs>
</svg>
