<svg width="72" height="72" viewBox="0 0 72 72" fill="none" xmlns="http://www.w3.org/2000/svg">
<rect width="72" height="72" rx="20" fill="#EFF7FF"/>
<g clip-path="url(#clip0_2038_4152)">
<path d="M47.7973 12C38.0638 12 35.639 20.8415 35.7455 35.1462H35.7459C35.7459 35.1462 35.6744 37.6256 38.5966 39.4893H56.9973C59.9195 37.6256 59.8481 35.1462 59.8481 35.1462H59.8489C59.9554 20.8415 57.5306 12 47.7973 12Z" fill="#CF8151"/>
<path d="M47.7968 35.8135C44.5313 35.8135 40.9381 36.7801 38.5967 39.4891C39.0655 39.7882 39.6111 40.0714 40.2468 40.326H55.3469C55.9826 40.0715 56.5281 39.7882 56.997 39.4891C54.6556 36.7801 51.0623 35.8135 47.7968 35.8135Z" fill="#BD6E45"/>
<path d="M43.6298 21.2699C43.1505 22.2962 42.0512 24.1594 40.0885 25.0524C39.9156 25.1311 39.8037 25.3025 39.8037 25.4925V27.56V28.2583C39.8037 32.6729 43.3824 36.4515 47.7969 36.4515C52.2115 36.4515 55.7902 32.6729 55.7902 28.2583V27.56V24.9145C55.7902 24.6404 55.5634 24.4212 55.2893 24.4309C53.5238 24.4937 47.5294 24.4452 44.4213 21.1443C44.1861 20.8943 43.7751 20.9589 43.6298 21.2699Z" fill="#F0C69E"/>
<path d="M47.7969 35.5533C43.3823 35.5533 39.8037 31.9746 39.8037 27.5601V29.302C39.8037 33.7166 43.3824 37.2952 47.7969 37.2952C52.2115 37.2952 55.7902 33.7165 55.7902 29.302V27.5601C55.7902 31.9746 52.2115 35.5533 47.7969 35.5533Z" fill="#E6BA94"/>
<path d="M34.4445 51.104C34.5236 49.7431 34.5149 48.5055 34.4292 47.3809H15.5073C15.4216 48.5055 15.4129 49.7431 15.492 51.104H34.4445Z" fill="#26457D"/>
<path d="M15.3188 51.4588C15.3188 52.9868 16.0917 53.848 17.1055 53.848L17.7966 52.9671L18.638 51.4588L17.7942 49.9502C17.7129 49.9418 17.6303 49.9375 17.5468 49.9375C16.533 49.9375 15.6671 50.5684 15.3188 51.4588Z" fill="#E2AE84"/>
<path d="M17.5466 52.9799C16.5328 52.9799 15.6669 52.3489 15.3185 51.4585C15.2129 51.7285 15.1543 52.022 15.1543 52.3294C15.1543 53.6507 16.2253 54.7217 17.5466 54.7217C17.7138 54.7217 17.8769 54.7045 18.0343 54.6719L18.6377 53.8476L17.7963 52.9668C17.7142 52.9754 17.631 52.9799 17.5466 52.9799Z" fill="#D7A379"/>
<path d="M34.6189 51.4588C34.6189 52.9868 33.8461 53.848 32.8322 53.848L32.1412 52.9671L31.2998 51.4588L32.1436 49.9502C32.2249 49.9418 32.3074 49.9375 32.391 49.9375C33.4048 49.9375 34.2706 50.5684 34.6189 51.4588Z" fill="#E2AE84"/>
<path d="M32.3909 52.9799C33.4047 52.9799 34.2706 52.3489 34.6189 51.4585C34.7246 51.7285 34.7832 52.022 34.7832 52.3294C34.7832 53.6507 33.7121 54.7217 32.3909 54.7217C32.2237 54.7217 32.0606 54.7045 31.9032 54.6719L31.2998 53.8476L32.1412 52.9668C32.2232 52.9754 32.3065 52.9799 32.3909 52.9799Z" fill="#D7A379"/>
<path d="M29.7835 47.3809L24.8865 46.5371L20.1535 47.3809C18.787 49.6309 17.7943 49.95 17.7939 49.9501V51.4587V51.8678C17.7939 55.8303 21.0061 59.1563 24.9685 59.1563C28.931 59.1563 32.1431 55.8303 32.1431 51.8678V51.4537V49.9501C32.1431 49.9501 31.1502 49.631 29.7835 47.3809Z" fill="#F0C69E"/>
<path d="M24.9685 58.2581C21.0061 58.2581 17.7939 55.0459 17.7939 51.0835V52.8255C17.7939 56.7879 21.0061 60.0001 24.9685 60.0001C28.931 60.0001 32.1431 56.7879 32.1431 52.8255V51.0835C32.1431 55.0459 28.9309 58.2581 24.9685 58.2581Z" fill="#E6BA94"/>
<path d="M34.7126 45.6388C33.7316 39.2254 29.2497 37.2954 24.9686 37.2954C20.6875 37.2954 16.2056 39.2254 15.2246 45.6388L24.9689 46.4825L34.7126 45.6388Z" fill="#DC4955"/>
<path d="M15.2239 45.6387C15.1642 46.0291 15.1174 46.4362 15.0845 46.8605C15.0627 47.1409 15.2862 47.3806 15.5675 47.3806H21.918L24.9687 46.5369L28.0194 47.3806H34.3695C34.6508 47.3806 34.8743 47.1409 34.8525 46.8605C34.8196 46.4362 34.7728 46.0292 34.7131 45.6387H15.2239Z" fill="#D82F3C"/>
<path d="M28.0146 44.925C27.9287 43.317 26.5979 42.0396 24.9685 42.0396C23.3391 42.0396 22.0082 43.317 21.9224 44.925L24.9682 45.7687L28.0146 44.925Z" fill="#26457D"/>
<path d="M21.918 45.639V44.9253H28.0194V45.639L24.9687 46.4828L21.918 45.639Z" fill="#F6E080"/>
<path d="M21.918 45.6387H28.0194V47.3806H21.918V45.6387Z" fill="#ECCD61"/>
<path d="M40.2092 53.7915L38.6962 53.1865C38.6962 53.1865 36.6373 54.2087 36.7364 57.9933C39.221 58.3643 40.6908 56.1267 40.2092 53.7915Z" fill="#CF8151"/>
<path d="M56.9821 50.6798C59.107 40.2363 52.9524 37.2954 47.7969 37.2954C42.6414 37.2954 36.4868 40.2363 38.6118 50.6798H56.9821Z" fill="#CF8151"/>
<path d="M41.0758 54.138L40.2092 53.7915C39.8816 56.2137 37.8115 57.4881 36.7363 57.9934C36.7476 58.4241 36.7866 58.8904 36.8599 59.395C36.9063 59.7149 37.2473 59.9007 37.5411 59.766C38.7777 59.1991 41.5253 57.5407 41.0758 54.138Z" fill="#BD6E45"/>
<path d="M38.4541 50.9966C38.4541 51.9637 39.1253 53.3007 40.0978 53.3007L40.8444 52.432L41.6576 51.7223L40.8429 49.5611C40.7641 49.553 40.6841 49.5488 40.6031 49.5488C39.6306 49.5487 38.7984 50.1477 38.4541 50.9966Z" fill="#E2AE84"/>
<path d="M40.603 52.4445C39.6305 52.4445 38.7983 51.8455 38.454 50.9966C38.3448 51.2656 38.2842 51.5594 38.2842 51.8675C38.2842 53.1481 39.3224 54.1863 40.603 54.1863C40.765 54.1863 40.9231 54.1696 41.0758 54.138L41.8801 53.1865L40.8442 52.4319C40.7649 52.4402 40.6845 52.4445 40.603 52.4445Z" fill="#D7A379"/>
<path d="M55.3849 53.7915L56.8979 53.1865C56.8979 53.1865 58.9568 54.2087 58.8577 57.9933C56.3731 58.3643 54.9033 56.1267 55.3849 53.7915Z" fill="#CF8151"/>
<path d="M54.5184 54.138L55.385 53.7915C55.7126 56.2137 57.7828 57.4881 58.8579 57.9934C58.8466 58.4241 58.8076 58.8904 58.7343 59.395C58.6879 59.7149 58.3469 59.9007 58.0531 59.766C56.8165 59.1991 54.069 57.5407 54.5184 54.138Z" fill="#BD6E45"/>
<path d="M57.1401 50.9966C57.1401 51.9637 56.4689 53.3007 55.4963 53.3007L54.7498 52.432L53.9365 51.7223L54.7512 49.5611C54.8301 49.553 54.91 49.5488 54.9909 49.5488C55.9635 49.5487 56.7956 50.1477 57.1401 50.9966Z" fill="#E2AE84"/>
<path d="M54.991 52.4445C55.9635 52.4445 56.7957 51.8455 57.1401 50.9966C57.2492 51.2656 57.3098 51.5594 57.3098 51.8675C57.3098 53.1481 56.2716 54.1863 54.991 54.1863C54.829 54.1863 54.671 54.1696 54.5182 54.138L53.7139 53.1865L54.7498 52.4319C54.8291 52.4402 54.9096 52.4445 54.991 52.4445Z" fill="#D7A379"/>
<path d="M48.2033 43.8979C50.691 47.7386 54.7511 49.5629 54.7511 49.5629V50.6064V51.5046C54.7511 55.3452 51.6376 58.4588 47.797 58.4588C43.9563 58.4588 40.8428 55.3452 40.8428 51.5046V50.6064V49.5629C40.8428 49.5629 44.9029 47.7385 47.3906 43.8979C47.5826 43.6017 48.0115 43.6017 48.2033 43.8979Z" fill="#F0C69E"/>
<path d="M47.797 57.5606C43.9563 57.5606 40.8428 54.4472 40.8428 50.6064V52.3484C40.8428 56.1891 43.9563 59.3026 47.797 59.3026C51.6376 59.3026 54.7511 56.1892 54.7511 52.3484V50.6064C54.7511 54.4471 51.6377 57.5606 47.797 57.5606Z" fill="#E6BA94"/>
<path d="M35.8409 26.4336C39.2721 15.3147 30.2814 14.9168 30.2814 14.9168C30.2814 14.9168 29.2123 12 24.401 12C19.7818 12 16.8602 13.4215 12.8497 12.7916C12.5726 12.7481 12.3148 12.9439 12.2888 13.2233C12.1087 15.1669 11.6845 22.0766 14.283 25.8828L35.8409 26.4336Z" fill="#26457D"/>
<path d="M16.6993 24.3428C15.6295 24.3428 14.7075 24.9733 14.2832 25.8828C14.4901 26.1858 14.7159 26.4694 14.9628 26.729L18.1401 26.7931L16.975 24.3568C16.8843 24.3476 16.7924 24.3428 16.6993 24.3428Z" fill="#21386B"/>
<path d="M35.5259 27.3841C35.6409 27.0581 35.7441 26.7422 35.8394 26.433C35.5765 25.2373 34.5115 24.3423 33.2369 24.3423C33.1438 24.3423 33.0519 24.3472 32.9613 24.3564L32.0322 27.3023L35.5259 27.3841Z" fill="#21386B"/>
<path d="M14.1807 27.8788C14.1807 29.2464 14.9488 30.597 16.1156 30.597L16.9839 29.6578L18.5054 28.9451L16.9752 26.0986C16.8845 26.0893 16.7926 26.0845 16.6995 26.0845C15.5327 26.0844 14.5417 26.8346 14.1807 27.8788Z" fill="#E2AE84"/>
<path d="M16.6994 29.6732C15.5325 29.6732 14.5415 28.923 14.1805 27.8789C14.0861 28.1519 14.0342 28.4448 14.0342 28.7498C14.0342 30.2218 15.2274 31.4152 16.6995 31.4152C16.8857 31.4152 17.0675 31.3959 17.2429 31.3596L17.7862 30.3951L16.9838 29.6579C16.8903 29.6678 16.7955 29.6732 16.6994 29.6732Z" fill="#D7A379"/>
<path d="M35.7563 27.8788C35.7563 29.2464 34.9882 30.597 33.8214 30.597L32.9531 29.6578L31.4316 28.9451L32.9619 26.0986C33.0525 26.0893 33.1445 26.0845 33.2375 26.0845C34.4044 26.0844 35.3954 26.8346 35.7563 27.8788Z" fill="#E2AE84"/>
<path d="M33.2372 29.6732C34.4041 29.6732 35.3952 28.923 35.7561 27.8789C35.8505 28.1519 35.9025 28.4448 35.9025 28.7498C35.9025 30.2218 34.7092 31.4152 33.2371 31.4152C33.051 31.4152 32.8692 31.3959 32.6938 31.3596L32.1504 30.3951L32.9528 29.6579C33.0463 29.6678 33.1411 29.6732 33.2372 29.6732Z" fill="#D7A379"/>
<path d="M32.9615 24.2761V27.5604V28.2734C32.9615 32.688 29.3828 36.4518 24.9683 36.4518C20.5537 36.4518 16.9751 32.688 16.9751 28.2734V27.5604V20.3185C16.9751 19.9509 17.3686 19.7167 17.6907 19.8939C19.1672 20.7061 22.9372 22.1182 29.0814 20.0842C29.3253 20.0035 29.5891 20.127 29.6838 20.3658C29.9973 21.1554 30.8496 22.8349 32.709 23.8517C32.8641 23.9367 32.9615 24.099 32.9615 24.2761Z" fill="#F0C69E"/>
<path d="M24.9684 35.5533C20.5538 35.5533 16.9751 31.9746 16.9751 27.5601V29.302C16.9751 33.7166 20.5538 37.2952 24.9683 37.2952C29.3829 37.2952 32.9615 33.7165 32.9615 29.302V27.5601C32.9617 31.9746 29.383 35.5533 24.9684 35.5533Z" fill="#E6BA94"/>
<path d="M20.9801 26.1001C20.5761 26.1001 20.2485 26.4257 20.2485 26.8273V28.6227C20.2485 29.0243 20.5761 29.3499 20.9801 29.3499C21.384 29.3499 21.7116 29.0243 21.7116 28.6227V26.8273C21.7116 26.4257 21.384 26.1001 20.9801 26.1001Z" fill="#5E6B75"/>
<path d="M28.7877 26.1001C28.3837 26.1001 28.0562 26.4257 28.0562 26.8273V28.6227C28.0562 29.0243 28.3837 29.3499 28.7877 29.3499C29.1917 29.3499 29.5192 29.0243 29.5192 28.6227V26.8273C29.5192 26.4257 29.1917 26.1001 28.7877 26.1001Z" fill="#5E6B75"/>
<path d="M43.9889 26.1001C43.5849 26.1001 43.2573 26.4257 43.2573 26.8273V28.6227C43.2573 29.0243 43.5849 29.3499 43.9889 29.3499C44.3928 29.3499 44.7204 29.0243 44.7204 28.6227V26.8273C44.7204 26.4257 44.3928 26.1001 43.9889 26.1001Z" fill="#5E6B75"/>
<path d="M51.7965 29.3499C52.2004 29.3499 52.528 29.0243 52.528 28.6227V26.8273C52.528 26.4257 52.2004 26.1001 51.7965 26.1001C51.3925 26.1001 51.0649 26.4257 51.0649 26.8273V28.6227C51.0649 29.0244 51.3924 29.3499 51.7965 29.3499Z" fill="#5E6B75"/>
<path d="M21.38 49.9209C20.976 49.9209 20.6484 50.2465 20.6484 50.6481V52.2596C20.6484 52.6612 20.976 52.9868 21.38 52.9868C21.784 52.9868 22.1115 52.6612 22.1115 52.2596V50.6481C22.1115 50.2466 21.784 49.9209 21.38 49.9209Z" fill="#5E6B75"/>
<path d="M28.3878 49.9209C27.9838 49.9209 27.6562 50.2465 27.6562 50.6481V52.2596C27.6562 52.6612 27.9838 52.9868 28.3878 52.9868C28.7917 52.9868 29.1193 52.6612 29.1193 52.2596V50.6481C29.1193 50.2466 28.7917 49.9209 28.3878 49.9209Z" fill="#5E6B75"/>
<path d="M44.4962 49.5107C44.0922 49.5107 43.7646 49.8363 43.7646 50.238V51.8C43.7646 52.2016 44.0922 52.5272 44.4962 52.5272C44.9001 52.5272 45.2277 52.2016 45.2277 51.8V50.238C45.2277 49.8363 44.9001 49.5107 44.4962 49.5107Z" fill="#5E6B75"/>
<path d="M51.2887 49.5107C50.8846 49.5107 50.5571 49.8363 50.5571 50.238V51.8C50.5571 52.2016 50.8846 52.5272 51.2887 52.5272C51.6926 52.5272 52.0202 52.2016 52.0202 51.8V50.238C52.0202 49.8363 51.6926 49.5107 51.2887 49.5107Z" fill="#5E6B75"/>
<path d="M49.7063 53.9178C49.3324 53.7648 48.9048 53.942 48.7509 54.3135C48.7494 54.3172 48.5608 54.6723 47.8953 54.6723C47.2297 54.6723 47.0411 54.3171 47.0396 54.3135C46.8858 53.942 46.4582 53.7648 46.0842 53.9178C45.7105 54.0708 45.5323 54.496 45.6861 54.8676C45.8799 55.3355 46.5634 56.1273 47.8953 56.1273C49.2272 56.1273 49.9105 55.3354 50.1044 54.8676C50.2582 54.4959 50.08 54.0707 49.7063 53.9178Z" fill="#DC4955"/>
<path d="M50.3299 32.0839C50.3736 31.9905 50.3986 31.8868 50.3986 31.777C50.3986 31.3738 50.0699 31.0469 49.6642 31.0469C49.3571 31.0469 49.0937 31.2339 48.984 31.5001C48.984 31.5 48.984 31.5002 48.984 31.5001C48.9589 31.5514 48.7141 32.0016 47.8851 32.0016C47.056 32.0016 46.8113 31.5514 46.7862 31.5001C46.7862 31.5002 46.7863 31.5 46.7862 31.5001C46.6765 31.234 46.4131 31.0469 46.106 31.0469C45.7004 31.0469 45.3716 31.3737 45.3716 31.777C45.3716 31.8872 45.3968 31.9912 45.4408 32.0849C45.6594 32.6011 46.4145 33.4618 47.8851 33.4618C49.3567 33.4618 50.1119 32.5999 50.3299 32.0839Z" fill="#DC4955"/>
<path d="M26.4825 54.3794C26.1737 54.3794 25.91 54.5695 25.8022 54.8382C25.8021 54.8381 25.8016 54.8377 25.8016 54.8376C25.7807 54.8793 25.577 55.2441 24.8867 55.2441C24.1964 55.2441 23.9928 54.8793 23.9719 54.8376C23.9719 54.8377 23.9719 54.8376 23.9719 54.8377C23.864 54.5691 23.5997 54.3794 23.2909 54.3794C22.8861 54.3794 22.5581 54.7055 22.5581 55.1077C22.5581 55.2172 22.5828 55.3207 22.6264 55.4139C22.8244 55.892 23.5232 56.7008 24.8867 56.7008C26.2502 56.7008 26.9491 55.8919 27.147 55.4139L27.1467 55.4138C27.1902 55.3207 27.2152 55.2172 27.2152 55.1078C27.2152 54.7055 26.8872 54.3794 26.4825 54.3794Z" fill="#DC4955"/>
<path d="M26.6703 31.0552C26.3538 31.0552 26.085 31.2552 25.9828 31.5347C25.9824 31.5343 25.9812 31.5337 25.9813 31.5335C25.9563 31.5846 25.7129 32.0322 24.8881 32.0322C24.0634 32.0322 23.82 31.5845 23.795 31.5335C23.6928 31.2539 23.4225 31.0552 23.106 31.0552C22.7017 31.0552 22.374 31.381 22.374 31.7829C22.374 31.8991 22.4008 32.0091 22.4495 32.1066C22.6619 32.6196 23.4146 33.4877 24.8882 33.4877C26.3618 33.4877 27.1145 32.6196 27.3269 32.1066C27.3757 32.0091 27.4024 31.8991 27.4024 31.7829C27.4024 31.3811 27.0746 31.0552 26.6703 31.0552Z" fill="#DC4955"/>
</g>
<defs>
<clipPath id="clip0_2038_4152">
<rect width="48" height="48" fill="white" transform="translate(12 12)"/>
</clipPath>
</defs>
</svg>
