<svg width="72" height="72" viewBox="0 0 72 72" fill="none" xmlns="http://www.w3.org/2000/svg">
<rect width="72" height="72" rx="20" fill="#EFF7FF"/>
<path d="M41.5 34.5V29.25C41.5 23.25 34.75 21.75 34.75 21.75V18.75H25.75V21.75C25.75 21.75 19 23.25 19 29.25V34.5C18.9996 34.6971 19.0381 34.8923 19.1133 35.0745C19.1885 35.2567 19.299 35.4222 19.4384 35.5616C19.5778 35.701 19.7433 35.8115 19.9255 35.8867C20.1077 35.9619 20.3029 36.0004 20.5 36C20.3029 35.9996 20.1077 36.0381 19.9255 36.1133C19.7433 36.1885 19.5778 36.299 19.4384 36.4384C19.299 36.5777 19.1885 36.7433 19.1133 36.9255C19.0381 37.1076 18.9996 37.3029 19 37.5V40.5C18.9996 40.6971 19.0381 40.8924 19.1133 41.0745C19.1885 41.2567 19.299 41.4223 19.4384 41.5616C19.5778 41.701 19.7433 41.8115 19.9255 41.8867C20.1077 41.9619 20.3029 42.0004 20.5 42C20.3029 41.9996 20.1077 42.0381 19.9255 42.1133C19.7433 42.1885 19.5778 42.299 19.4384 42.4384C19.299 42.5778 19.1885 42.7433 19.1133 42.9255C19.0381 43.1076 18.9996 43.3029 19 43.5V46.5C18.9996 46.6971 19.0381 46.8924 19.1133 47.0745C19.1885 47.2567 19.299 47.4223 19.4384 47.5616C19.5778 47.701 19.7433 47.8115 19.9255 47.8867C20.1077 47.9619 20.3029 48.0004 20.5 48C20.3029 47.9996 20.1077 48.0381 19.9255 48.1133C19.7433 48.1885 19.5778 48.299 19.4384 48.4384C19.299 48.5778 19.1885 48.7433 19.1133 48.9255C19.0381 49.1076 18.9996 49.3029 19 49.5V54.75C18.9991 55.1442 19.0761 55.5347 19.2266 55.8991C19.3771 56.2634 19.598 56.5945 19.8768 56.8733C20.1555 57.152 20.4866 57.3729 20.8509 57.5234C21.2153 57.6739 21.6058 57.7509 22 57.75H38.5C38.8942 57.7509 39.2847 57.6739 39.6491 57.5234C40.0134 57.3729 40.3445 57.152 40.6233 56.8733C40.902 56.5945 41.1229 56.2634 41.2734 55.8991C41.4239 55.5347 41.5009 55.1442 41.5 54.75V49.5C41.5004 49.3029 41.4619 49.1076 41.3867 48.9255C41.3115 48.7433 41.201 48.5778 41.0616 48.4384C40.9222 48.299 40.7567 48.1885 40.5745 48.1133C40.3924 48.0381 40.1971 47.9996 40 48C40.1971 48.0004 40.3924 47.9619 40.5745 47.8867C40.7567 47.8115 40.9223 47.701 41.0616 47.5616C41.201 47.4223 41.3115 47.2567 41.3867 47.0745C41.4619 46.8924 41.5004 46.6971 41.5 46.5V43.5C41.5004 43.3029 41.4619 43.1076 41.3867 42.9255C41.3115 42.7433 41.201 42.5778 41.0616 42.4384C40.9222 42.299 40.7567 42.1885 40.5745 42.1133C40.3924 42.0381 40.1971 41.9996 40 42C40.1971 42.0004 40.3924 41.9619 40.5745 41.8867C40.7567 41.8115 40.9223 41.701 41.0616 41.5616C41.201 41.4223 41.3115 41.2567 41.3867 41.0745C41.4619 40.8924 41.5004 40.6971 41.5 40.5V37.5C41.5004 37.3029 41.4619 37.1076 41.3867 36.9255C41.3115 36.7433 41.201 36.5777 41.0616 36.4384C40.9223 36.299 40.7567 36.1885 40.5745 36.1133C40.3924 36.0381 40.1971 35.9996 40 36C40.1971 36.0004 40.3924 35.9619 40.5745 35.8867C40.7567 35.8115 40.9222 35.701 41.0616 35.5616C41.201 35.4222 41.3115 35.2567 41.3867 35.0745C41.4619 34.8923 41.5004 34.6971 41.5 34.5Z" fill="#EEEEEE"/>
<path d="M41.5 29.25V34.5C41.5007 34.6972 41.4624 34.8925 41.3872 35.0748C41.3121 35.2571 41.2016 35.4228 41.0622 35.5622C40.9228 35.7016 40.7571 35.8121 40.5748 35.8872C40.3925 35.9624 40.1972 36.0007 40 36H20.5C20.3028 36.0007 20.1075 35.9624 19.9252 35.8872C19.7429 35.8121 19.5772 35.7016 19.4378 35.5622C19.2984 35.4228 19.1879 35.2571 19.1128 35.0748C19.0377 34.8925 18.9993 34.6972 19 34.5V32.25C18.9993 32.4472 19.0377 32.6425 19.1128 32.8248C19.1879 33.0071 19.2984 33.1728 19.4378 33.3122C19.5772 33.4516 19.7429 33.5621 19.9252 33.6372C20.1075 33.7124 20.3028 33.7507 20.5 33.75H36.25C36.4472 33.7507 36.6425 33.7124 36.8248 33.6372C37.0071 33.5621 37.1728 33.4516 37.3122 33.3122C37.4516 33.1728 37.5621 33.0071 37.6372 32.8248C37.7124 32.6425 37.7507 32.4472 37.75 32.25V30C37.75 24 31 22.5 31 22.5V18.75H34.75V21.75C34.75 21.75 41.5 23.25 41.5 29.25Z" fill="#E0E0E0"/>
<path d="M36.25 15.75V18C36.25 18.1989 36.171 18.3897 36.0303 18.5303C35.8897 18.671 35.6989 18.75 35.5 18.75H25C24.8011 18.75 24.6103 18.671 24.4697 18.5303C24.329 18.3897 24.25 18.1989 24.25 18V15.75C24.25 15.3522 24.408 14.9706 24.6893 14.6893C24.9706 14.408 25.3522 14.25 25.75 14.25H34.75C35.1478 14.25 35.5294 14.408 35.8107 14.6893C36.092 14.9706 36.25 15.3522 36.25 15.75Z" fill="#64B5F6"/>
<path d="M36.25 15.75V18C36.2494 18.1987 36.1702 18.3892 36.0297 18.5297C35.8892 18.6702 35.6987 18.7494 35.5 18.75H25C24.8013 18.7494 24.6108 18.6702 24.4703 18.5297C24.3298 18.3892 24.2506 18.1987 24.25 18V15.75C24.2506 15.9487 24.3298 16.1392 24.4703 16.2797C24.6108 16.4202 24.8013 16.4994 25 16.5H31.75C31.9487 16.4994 32.1392 16.4202 32.2797 16.2797C32.4202 16.1392 32.4994 15.9487 32.5 15.75C32.4988 15.3525 32.3404 14.9717 32.0594 14.6906C31.7783 14.4096 31.3975 14.2512 31 14.25H34.75C35.1475 14.2512 35.5283 14.4096 35.8094 14.6906C36.0904 14.9717 36.2488 15.3525 36.25 15.75Z" fill="#42A5F5"/>
<path d="M40 36C40.1972 35.9993 40.3926 36.0376 40.5748 36.1128C40.7571 36.1879 40.9228 36.2984 41.0622 36.4378C41.2016 36.5772 41.3121 36.7429 41.3872 36.9252C41.4624 37.1075 41.5007 37.3028 41.5 37.5V40.5C41.5007 40.6972 41.4624 40.8925 41.3872 41.0748C41.3121 41.2571 41.2016 41.4228 41.0622 41.5622C40.9228 41.7016 40.7571 41.8121 40.5748 41.8872C40.3926 41.9624 40.1972 42.0007 40 42C40.1972 41.9993 40.3926 42.0376 40.5748 42.1128C40.7571 42.1879 40.9228 42.2984 41.0622 42.4378C41.2016 42.5772 41.3121 42.7429 41.3872 42.9252C41.4624 43.1075 41.5007 43.3028 41.5 43.5V46.5C41.5007 46.6972 41.4624 46.8925 41.3872 47.0748C41.3121 47.2571 41.2016 47.4228 41.0622 47.5622C40.9228 47.7016 40.7571 47.8121 40.5748 47.8872C40.3926 47.9624 40.1972 48.0007 40 48C40.1972 47.9993 40.3926 48.0376 40.5748 48.1128C40.7571 48.1879 40.9228 48.2984 41.0622 48.4378C41.2016 48.5772 41.3121 48.7429 41.3872 48.9252C41.4624 49.1075 41.5007 49.3028 41.5 49.5V54.75C41.5014 55.1443 41.4247 55.5351 41.2744 55.8997C41.1242 56.2643 40.9032 56.5955 40.6244 56.8744C40.3455 57.1532 40.0143 57.3741 39.6497 57.5244C39.2851 57.6747 38.8944 57.7514 38.5 57.75H22C21.6057 57.7514 21.2149 57.6747 20.8504 57.5244C20.4858 57.3741 20.1545 57.1532 19.8757 56.8744C19.5968 56.5955 19.3759 56.2643 19.2256 55.8997C19.0753 55.5351 18.9987 55.1443 19 54.75V49.5C18.9993 49.3028 19.0377 49.1075 19.1128 48.9252C19.1879 48.7429 19.2984 48.5772 19.4378 48.4378C19.5773 48.2984 19.7429 48.1879 19.9252 48.1128C20.1075 48.0376 20.3028 47.9993 20.5 48C20.3028 48.0007 20.1075 47.9624 19.9252 47.8872C19.7429 47.8121 19.5773 47.7016 19.4378 47.5622C19.2984 47.4228 19.1879 47.2571 19.1128 47.0748C19.0377 46.8925 18.9993 46.6972 19 46.5V43.5C18.9993 43.3028 19.0377 43.1075 19.1128 42.9252C19.1879 42.7429 19.2984 42.5772 19.4378 42.4378C19.5773 42.2984 19.7429 42.1879 19.9252 42.1128C20.1075 42.0376 20.3028 41.9993 20.5 42C20.3028 42.0007 20.1075 41.9624 19.9252 41.8872C19.7429 41.8121 19.5773 41.7016 19.4378 41.5622C19.2984 41.4228 19.1879 41.2571 19.1128 41.0748C19.0377 40.8925 18.9993 40.6972 19 40.5V37.5C18.9993 37.3028 19.0377 37.1075 19.1128 36.9252C19.1879 36.7429 19.2984 36.5772 19.4378 36.4378C19.5773 36.2984 19.7429 36.1879 19.9252 36.1128C20.1075 36.0376 20.3028 35.9993 20.5 36C20.3028 36.0007 20.1075 35.9624 19.9252 35.8872C19.7429 35.8121 19.5773 35.7016 19.4378 35.5622C19.2984 35.4228 19.1879 35.2571 19.1128 35.0748C19.0377 34.8925 18.9993 34.6972 19 34.5V29.25C20.7234 30.2043 22.6553 30.7195 24.625 30.75C26.5947 30.7195 28.5266 30.2043 30.25 29.25C31.9734 28.2957 33.9053 27.7805 35.875 27.75C37.8447 27.7805 39.7766 28.2957 41.5 29.25V34.5C41.5007 34.6972 41.4624 34.8925 41.3872 35.0748C41.3121 35.2571 41.2016 35.4228 41.0622 35.5622C40.9228 35.7016 40.7571 35.8121 40.5748 35.8872C40.3926 35.9624 40.1972 36.0007 40 36Z" fill="#64B5F6"/>
<path d="M37.4302 27.877C37.645 28.5641 37.7529 29.2802 37.75 30.0002V32.2502C37.7507 32.4474 37.7124 32.6427 37.6372 32.825C37.5621 33.0073 37.4516 33.173 37.3122 33.3124C37.1728 33.4518 37.0071 33.5623 36.8248 33.6374C36.6425 33.7126 36.4472 33.7509 36.25 33.7502H20.5C20.3028 33.7509 20.1075 33.7126 19.9252 33.6374C19.7429 33.5623 19.5772 33.4518 19.4378 33.3124C19.2984 33.173 19.1879 33.0073 19.1128 32.825C19.0377 32.6427 18.9993 32.4474 19 32.2502V34.5002C18.9993 34.6974 19.0377 34.8927 19.1128 35.075C19.1879 35.2573 19.2984 35.423 19.4378 35.5624C19.5772 35.7018 19.7429 35.8123 19.9252 35.8874C20.1075 35.9626 20.3028 36.0009 20.5 36.0002H40C40.1972 36.0009 40.3925 35.9626 40.5748 35.8874C40.7571 35.8123 40.9228 35.7018 41.0622 35.5624C41.2016 35.423 41.3121 35.2573 41.3872 35.075C41.4624 34.8927 41.5007 34.6974 41.5 34.5002V29.2502C40.2354 28.555 38.8574 28.09 37.4302 27.877Z" fill="#42A5F5"/>
<path d="M41.5 37.5V40.5C41.5007 40.6972 41.4624 40.8925 41.3872 41.0748C41.3121 41.2571 41.2016 41.4228 41.0622 41.5622C40.9228 41.7016 40.7571 41.8121 40.5748 41.8872C40.3925 41.9624 40.1972 42.0007 40 42H20.5C20.3028 42.0007 20.1075 41.9624 19.9252 41.8872C19.7429 41.8121 19.5772 41.7016 19.4378 41.5622C19.2984 41.4228 19.1879 41.2571 19.1128 41.0748C19.0377 40.8925 18.9993 40.6972 19 40.5V38.25C18.9993 38.4472 19.0377 38.6425 19.1128 38.8248C19.1879 39.0071 19.2984 39.1728 19.4378 39.3122C19.5772 39.4516 19.7429 39.5621 19.9252 39.6372C20.1075 39.7124 20.3028 39.7507 20.5 39.75H36.25C36.4472 39.7507 36.6425 39.7124 36.8248 39.6372C37.0071 39.5621 37.1728 39.4516 37.3122 39.3122C37.4516 39.1728 37.5621 39.0071 37.6372 38.8248C37.7124 38.6425 37.7507 38.4472 37.75 38.25V36H40C40.1972 35.9993 40.3925 36.0377 40.5748 36.1128C40.7571 36.1879 40.9228 36.2984 41.0622 36.4378C41.2016 36.5772 41.3121 36.7429 41.3872 36.9252C41.4624 37.1075 41.5007 37.3028 41.5 37.5Z" fill="#42A5F5"/>
<path d="M41.5 43.5V46.5C41.5007 46.6972 41.4624 46.8925 41.3872 47.0748C41.3121 47.2571 41.2016 47.4228 41.0622 47.5622C40.9228 47.7016 40.7571 47.8121 40.5748 47.8872C40.3925 47.9624 40.1972 48.0007 40 48H20.5C20.3028 48.0007 20.1075 47.9624 19.9252 47.8872C19.7429 47.8121 19.5772 47.7016 19.4378 47.5622C19.2984 47.4228 19.1879 47.2571 19.1128 47.0748C19.0377 46.8925 18.9993 46.6972 19 46.5V44.25C18.9993 44.4472 19.0377 44.6425 19.1128 44.8248C19.1879 45.0071 19.2984 45.1728 19.4378 45.3122C19.5772 45.4516 19.7429 45.5621 19.9252 45.6372C20.1075 45.7124 20.3028 45.7507 20.5 45.75H36.25C36.4472 45.7507 36.6425 45.7124 36.8248 45.6372C37.0071 45.5621 37.1728 45.4516 37.3122 45.3122C37.4516 45.1728 37.5621 45.0071 37.6372 44.8248C37.7124 44.6425 37.7507 44.4472 37.75 44.25V42H40C40.1972 41.9993 40.3925 42.0377 40.5748 42.1128C40.7571 42.1879 40.9228 42.2984 41.0622 42.4378C41.2016 42.5772 41.3121 42.7429 41.3872 42.9252C41.4624 43.1075 41.5007 43.3028 41.5 43.5Z" fill="#42A5F5"/>
<path d="M41.5 49.5V54.75C41.5014 55.1444 41.4247 55.5351 41.2744 55.8997C41.1242 56.2643 40.9032 56.5955 40.6244 56.8744C40.3455 57.1532 40.0143 57.3742 39.6497 57.5244C39.2851 57.6747 38.8944 57.7514 38.5 57.75H22C21.6057 57.7514 21.2149 57.6747 20.8504 57.5244C20.4858 57.3742 20.1545 57.1532 19.8757 56.8744C19.5968 56.5955 19.3759 56.2643 19.2256 55.8997C19.0753 55.5351 18.9987 55.1444 19 54.75V52.5C18.9987 52.8944 19.0753 53.2851 19.2256 53.6497C19.3759 54.0143 19.5968 54.3455 19.8757 54.6244C20.1545 54.9032 20.4858 55.1242 20.8504 55.2744C21.2149 55.4247 21.6057 55.5014 22 55.5H34.75C35.1444 55.5014 35.5351 55.4247 35.8997 55.2744C36.2643 55.1242 36.5955 54.9032 36.8744 54.6244C37.1532 54.3455 37.3742 54.0143 37.5244 53.6497C37.6747 53.2851 37.7514 52.8944 37.75 52.5V49.5C37.7507 49.3028 37.7124 49.1075 37.6372 48.9252C37.5621 48.7429 37.4516 48.5772 37.3122 48.4378C37.1728 48.2984 37.0071 48.1879 36.8249 48.1128C36.6426 48.0377 36.4472 47.9993 36.25 48H40C40.1972 47.9993 40.3926 48.0377 40.5748 48.1128C40.7571 48.1879 40.9228 48.2984 41.0622 48.4378C41.2016 48.5772 41.3121 48.7429 41.3872 48.9252C41.4624 49.1075 41.5007 49.3028 41.5 49.5Z" fill="#42A5F5"/>
<path d="M37 35.1788C37 35.2262 37.0024 35.2736 37.0071 35.3209L39.1149 56.3993C39.1519 56.7694 39.3252 57.1126 39.601 57.3622C39.8768 57.6118 40.2355 57.75 40.6075 57.75H51.3925C51.7645 57.75 52.1232 57.6118 52.399 57.3622C52.6748 57.1126 52.848 56.7694 52.8851 56.3993L54.9929 35.3209C54.9976 35.2737 55 35.2263 55 35.1788C55 34.7998 54.8495 34.4364 54.5815 34.1685C54.3136 33.9005 53.9502 33.75 53.5713 33.75H38.4287C38.0498 33.75 37.6864 33.9005 37.4185 34.1685C37.1505 34.4364 37 34.7998 37 35.1788Z" fill="#EEEEEE"/>
<path d="M53.5712 33.75H51.9249L49.885 54.1493C49.848 54.5194 49.6747 54.8626 49.3989 55.1122C49.1231 55.3618 48.7644 55.5 48.3924 55.5H39.0249L39.1148 56.3993C39.1518 56.7694 39.3251 57.1126 39.6009 57.3622C39.8767 57.6118 40.2354 57.75 40.6074 57.75H51.3924C51.7644 57.75 52.1231 57.6118 52.3989 57.3622C52.6747 57.1126 52.848 56.7694 52.885 56.3993L54.9928 35.3209C54.9975 35.2737 54.9999 35.2263 54.9999 35.1788C54.9999 34.7998 54.8494 34.4364 54.5814 34.1685C54.3135 33.9005 53.9501 33.75 53.5712 33.75Z" fill="#E0E0E0"/>
<path d="M54.655 38.6925L52.885 56.4C52.8482 56.7702 52.675 57.1134 52.3992 57.3629C52.1233 57.6124 51.7645 57.7504 51.3925 57.75H40.6075C40.2355 57.7504 39.8767 57.6124 39.6008 57.3629C39.325 57.1134 39.1518 56.7702 39.115 56.4L37.5625 40.8675C38.4804 41.1116 39.4252 41.2401 40.375 41.25C42.3447 41.2195 44.2766 40.7043 46 39.75C47.7234 38.7957 49.6553 38.2805 51.625 38.25C52.6503 38.2611 53.6694 38.4099 54.655 38.6925Z" fill="#BBDEFB"/>
<path d="M43.75 49.5C44.1642 49.5 44.5 49.1642 44.5 48.75C44.5 48.3358 44.1642 48 43.75 48C43.3358 48 43 48.3358 43 48.75C43 49.1642 43.3358 49.5 43.75 49.5Z" fill="#E3F2FD"/>
<path d="M47.5 54C47.9142 54 48.25 53.6642 48.25 53.25C48.25 52.8358 47.9142 52.5 47.5 52.5C47.0858 52.5 46.75 52.8358 46.75 53.25C46.75 53.6642 47.0858 54 47.5 54Z" fill="#E3F2FD"/>
<path d="M47.5 45C47.9142 45 48.25 44.6642 48.25 44.25C48.25 43.8358 47.9142 43.5 47.5 43.5C47.0858 43.5 46.75 43.8358 46.75 44.25C46.75 44.6642 47.0858 45 47.5 45Z" fill="#E3F2FD"/>
<path d="M51.6248 38.25C51.577 38.25 51.5235 38.254 51.4744 38.2548L49.8849 54.1493C49.8479 54.5194 49.6747 54.8626 49.3989 55.1122C49.1231 55.3618 48.7643 55.5 48.3923 55.5H39.0249L39.1149 56.4C39.1516 56.7702 39.3248 57.1134 39.6007 57.3629C39.8765 57.6124 40.2354 57.7504 40.6074 57.75H51.3923C51.7643 57.7504 52.1231 57.6124 52.399 57.3629C52.6749 57.1134 52.8481 56.7702 52.8848 56.4L54.6548 38.6925C53.6692 38.4099 52.6501 38.2611 51.6248 38.25Z" fill="#90CAF9"/>
</svg>
