<svg width="72" height="72" viewBox="0 0 72 72" fill="none" xmlns="http://www.w3.org/2000/svg">
<rect width="72" height="72" rx="20" fill="#EFF7FF"/>
<path d="M47.7473 30.7743C39.0104 43.9473 10.0229 43.0854 20.1827 32.2999C26.5362 28.5626 34.8483 24.4484 42.3617 23.1666C44.8296 22.7459 46.5778 22.1213 47.5046 26.2707C47.7534 27.3836 47.8771 28.8485 47.7473 30.7743Z" fill="#3E3E7A"/>
<path d="M43.0571 28.0953C40.8537 33.6287 33.4518 34.8923 28.3701 35.2794C24.7001 31.2553 34.648 23.6963 36.0459 23.3762C37.4436 23.0562 44.1008 26.0486 43.0571 28.0953Z" fill="#88FFC3"/>
<path d="M45.5647 26.0617C45.3742 27.8864 44.6311 28.82 43.0569 28.0952C42.5951 27.572 41.9493 26.8221 41.3138 26.022C40.1559 27.0994 37.3343 29.0474 33.3036 27.3784C30.873 29.5772 28.5802 32.3852 28.3699 35.2794C26.9116 37.6585 23.6562 37.9176 22.6845 34.6101C22.5474 33.9049 22.8268 32.8893 23.5785 31.5319C27.2661 24.8735 40.5484 15.373 40.5484 15.373C40.5484 15.373 43.0379 23.004 45.5647 26.0617Z" fill="#00D2A9"/>
<path d="M49.2591 32.4485L26.5484 46.3588C26.5051 46.0465 23.0557 38.7621 22.6846 34.6103C23.6903 38.5142 39.8077 31.5047 45.5648 26.0619C46.8201 24.8752 48.3097 22.509 48.6263 21.5767C49.7639 22.841 49.7543 27.7723 49.2591 32.4485Z" fill="#00E9B1"/>
<path d="M50.0844 52.5971C47.6049 53.6717 44.2093 54.9643 40.6171 56.096C37.3644 57.1208 33.9511 58.0141 30.9136 58.4953C26.0617 59.2637 22.0811 58.0729 20.6999 55.7618C18.7039 52.4214 17.5983 47.6832 17.2061 43.4378C16.4196 34.9082 17.9856 33.5963 20.1829 32.3001C19.4743 33.2179 18.993 34.2517 19.004 35.3612C19.0633 41.1327 42.3606 33.3244 47.7475 30.7745C50.6727 29.3885 52.2881 28.644 53.2818 32.3488C55.3554 33.8346 54.3351 40.5494 54.5516 43.2382C55.0943 49.2516 55.1733 50.3904 50.0844 52.5971Z" fill="#51518E"/>
<path d="M54.5515 43.238C52.3997 44.5501 49.1759 44.9979 46.0347 43.5498C47.9463 41.9403 48.0606 39.5654 50.6294 37.891C53.7261 35.8726 54.1026 35.3854 53.2818 32.3486C57.4078 34.2346 58.3172 40.9419 54.5515 43.238Z" fill="#3E3E7A"/>
<path d="M52.6801 42.5267C53.7093 41.9982 54.2315 40.9617 53.8464 40.2117C53.4613 39.4617 52.3147 39.2822 51.2855 39.8106C50.2562 40.3391 49.7341 41.3756 50.1192 42.1256C50.5043 42.8756 51.6509 43.0552 52.6801 42.5267Z" fill="#F0E3E7"/>
<path d="M31.471 27.0613C30.8502 27.9183 30.0415 28.6133 29.0653 29.0711C25.5091 30.7379 21.0846 28.6178 19.1839 24.3373C17.2831 20.0567 18.6249 15.2352 22.18 13.5685C22.9875 13.1906 23.84 13.0061 24.6982 13.0005C26.3941 19.2392 26.771 22.2622 31.471 27.0613Z" fill="#F6C719"/>
<path d="M31.471 27.061C28.034 30.705 23.0865 27.7561 21.179 23.6375C19.3593 19.7101 20.5728 13.8921 24.6982 13.0002C27.6167 12.9755 30.5926 14.9932 32.0614 18.3009C33.4403 21.4072 33.113 24.797 31.471 27.061Z" fill="#F6D14F"/>
<path d="M29.5426 26.2237C31.6043 25.3562 32.2638 22.2486 31.0157 19.2828C29.7677 16.3171 27.0846 14.6162 25.023 15.4838C22.9613 16.3514 22.3018 19.4589 23.5499 22.4247C24.7979 25.3904 27.481 27.0913 29.5426 26.2237Z" fill="#F6C719"/>
</svg>
