<svg width="72" height="72" viewBox="0 0 72 72" fill="none" xmlns="http://www.w3.org/2000/svg">
<rect width="72" height="72" rx="20" fill="#EFF7FF"/>
<path d="M16.9655 19.4482V22.7586H12.8276C12.3705 22.7586 12 22.3881 12 21.931V20.2758C12 19.8188 12.3705 19.4482 12.8276 19.4482H16.9655Z" fill="#95A5A5"/>
<path d="M31.0347 19.4482H40.9657V22.7586H31.0347V19.4482Z" fill="#95A5A5"/>
<path d="M31.8619 22.7588V54.2071C31.8619 56.0353 30.3798 57.5174 28.5515 57.5174H20.2757C18.4474 57.5174 16.9653 56.0353 16.9653 54.2071V22.7588H31.8619Z" fill="#84B5CB"/>
<path d="M55.0342 22.7588V54.2071C55.0342 56.0353 53.5522 57.5174 51.7239 57.5174H43.448C41.6198 57.5174 40.1377 56.0353 40.1377 54.2071V22.7588H55.0342Z" fill="#84B5CB"/>
<path d="M22.7587 24.4141V51.7244C22.7587 52.1815 22.3882 52.552 21.9311 52.552C21.474 52.552 21.1035 52.1815 21.1035 51.7244V24.4141H22.7587Z" fill="#2980BA"/>
<path d="M27.724 24.4141V51.7244C27.724 52.1815 27.3535 52.552 26.8964 52.552C26.4394 52.552 26.0688 52.1815 26.0688 51.7244V24.4141H27.724Z" fill="#2980BA"/>
<path d="M45.9311 24.4141V51.7244C45.9311 52.1815 45.5605 52.552 45.1035 52.552C44.6464 52.552 44.2759 52.1815 44.2759 51.7244V24.4141H45.9311Z" fill="#2980BA"/>
<path d="M50.8964 24.4141V51.7244C50.8964 52.1815 50.5259 52.552 50.0688 52.552C49.6117 52.552 49.2412 52.1815 49.2412 51.7244V24.4141H50.8964Z" fill="#2980BA"/>
<path d="M32.6899 17.7935H16.1381C15.6811 17.7935 15.3105 18.164 15.3105 18.621V23.5866C15.3105 24.0436 15.6811 24.4141 16.1381 24.4141H32.6899C33.1469 24.4141 33.5174 24.0436 33.5174 23.5866V18.621C33.5174 18.164 33.1469 17.7935 32.6899 17.7935Z" fill="#3B97D3"/>
<path d="M60.0001 20.2758V21.931C60.0001 22.3881 59.6296 22.7586 59.1725 22.7586H54.207V19.4482H59.1725C59.6296 19.4482 60.0001 19.8188 60.0001 20.2758Z" fill="#95A5A5"/>
<path d="M55.8622 17.7935H39.3105C38.8534 17.7935 38.4829 18.164 38.4829 18.621V23.5866C38.4829 24.0436 38.8534 24.4141 39.3105 24.4141H55.8622C56.3193 24.4141 56.6898 24.0436 56.6898 23.5866V18.621C56.6898 18.164 56.3193 17.7935 55.8622 17.7935Z" fill="#3B97D3"/>
<path d="M32.6894 17.7933H16.1377L16.6508 15.7326C16.8345 14.9961 17.4973 14.4802 18.2563 14.4829H30.5708C31.3298 14.4802 31.9927 14.9961 32.1763 15.7326L32.6894 17.7933Z" fill="#2980BA"/>
<path d="M55.8623 17.7933H39.3105L39.8236 15.7326C40.0073 14.9961 40.6701 14.4802 41.4292 14.4829H53.7436C54.5027 14.4802 55.1655 14.9961 55.3492 15.7326L55.8623 17.7933Z" fill="#2980BA"/>
</svg>
