<svg width="60" height="60" viewBox="0 0 60 60" fill="none" xmlns="http://www.w3.org/2000/svg">
<g filter="url(#filter0_ii_2038_4458)">
<rect width="60" height="60" rx="15" fill="url(#paint0_linear_2038_4458)"/>
<g clip-path="url(#clip0_2038_4458)">
<mask id="mask0_2038_4458" style="mask-type:luminance" maskUnits="userSpaceOnUse" x="14" y="14" width="32" height="32">
<path d="M44.5 44.5V15.5H15.5V44.5H44.5Z" fill="white" stroke="white" stroke-width="2"/>
</mask>
<g mask="url(#mask0_2038_4458)">
<path d="M26.4277 27.2754H40.959C42.9653 27.2754 44.5918 28.9019 44.5918 30.9082L26.4277 32.7246V43.623" stroke="#0E655B" stroke-width="2" stroke-miterlimit="10"/>
<path d="M17.3457 43.623V23.6426C17.3457 19.6299 20.5986 16.377 24.6113 16.377H42.6848C43.738 16.377 44.5918 17.2307 44.5918 18.2839C44.5918 19.2636 43.8494 20.084 42.8746 20.1815L26.4277 21.8262V27.2754" stroke="#0E655B" stroke-width="2" stroke-miterlimit="10"/>
<path d="M26.4277 32.7246V43.623" stroke="#0E655B" stroke-width="2" stroke-miterlimit="10"/>
<path d="M26.4277 27.2754H17.3457" stroke="#0E655B" stroke-width="2" stroke-miterlimit="10"/>
<path d="M42.7754 41.8066C42.7754 42.8098 41.9621 43.623 40.959 43.623C39.9558 43.623 39.1426 42.8098 39.1426 41.8066C39.1426 40.8034 40.959 38.1738 40.959 38.1738C40.959 38.1738 42.7754 40.8034 42.7754 41.8066Z" stroke="#0E655B" stroke-width="2" stroke-miterlimit="10"/>
<path d="M14.5 43.623H29.1523" stroke="#0E655B" stroke-width="2" stroke-miterlimit="10"/>
<path d="M42.7754 31.0898V34.541H39.1426V31.4531" stroke="#0E655B" stroke-width="2" stroke-miterlimit="10"/>
</g>
</g>
</g>
<defs>
<filter id="filter0_ii_2038_4458" x="-1.3258" y="-1.3258" width="63.9774" height="63.9774" filterUnits="userSpaceOnUse" color-interpolation-filters="sRGB">
<feFlood flood-opacity="0" result="BackgroundImageFix"/>
<feBlend mode="normal" in="SourceGraphic" in2="BackgroundImageFix" result="shape"/>
<feColorMatrix in="SourceAlpha" type="matrix" values="0 0 0 0 0 0 0 0 0 0 0 0 0 0 0 0 0 0 127 0" result="hardAlpha"/>
<feOffset dx="2.65161" dy="2.65161"/>
<feGaussianBlur stdDeviation="4.41935"/>
<feComposite in2="hardAlpha" operator="arithmetic" k2="-1" k3="1"/>
<feColorMatrix type="matrix" values="0 0 0 0 1 0 0 0 0 1 0 0 0 0 1 0 0 0 0.45 0"/>
<feBlend mode="normal" in2="shape" result="effect1_innerShadow_2038_4458"/>
<feColorMatrix in="SourceAlpha" type="matrix" values="0 0 0 0 0 0 0 0 0 0 0 0 0 0 0 0 0 0 127 0" result="hardAlpha"/>
<feOffset dx="-1.3258" dy="-1.3258"/>
<feGaussianBlur stdDeviation="3.53548"/>
<feComposite in2="hardAlpha" operator="arithmetic" k2="-1" k3="1"/>
<feColorMatrix type="matrix" values="0 0 0 0 1 0 0 0 0 1 0 0 0 0 1 0 0 0 0.3 0"/>
<feBlend mode="normal" in2="effect1_innerShadow_2038_4458" result="effect2_innerShadow_2038_4458"/>
</filter>
<linearGradient id="paint0_linear_2038_4458" x1="7.89474" y1="-3.75" x2="61.0935" y2="59.0741" gradientUnits="userSpaceOnUse">
<stop stop-color="#BAFFF7"/>
<stop offset="1" stop-color="#18DECA"/>
</linearGradient>
<clipPath id="clip0_2038_4458">
<rect width="31" height="31" fill="white" transform="translate(14.5 14.5)"/>
</clipPath>
</defs>
</svg>
