<svg width="60" height="60" viewBox="0 0 60 60" fill="none" xmlns="http://www.w3.org/2000/svg">
<g filter="url(#filter0_ii_2038_4466)">
<rect width="60" height="60" rx="15" fill="url(#paint0_linear_2038_4466)"/>
<g clip-path="url(#clip0_2038_4466)">
<mask id="mask0_2038_4466" style="mask-type:luminance" maskUnits="userSpaceOnUse" x="14" y="14" width="32" height="32">
<path d="M14.5 14.5H45.5V45.5H14.5V14.5Z" fill="white"/>
</mask>
<g mask="url(#mask0_2038_4466)">
<path d="M30 15.4082L33.3863 17.363H37.2959L39.2507 20.7493L42.637 22.7041V26.6137L44.5918 30L42.637 33.3863V37.2959L39.2507 39.2507L37.2959 42.637H33.3863L30 44.5918L26.6137 42.637H22.7041L20.7493 39.2507L17.363 37.2959V33.3863L15.4082 30L17.363 26.6137V22.7041L20.7493 20.7493L22.7041 17.363H26.6137L30 15.4082Z" stroke="#0E655B" stroke-width="2" stroke-miterlimit="10" stroke-linecap="round" stroke-linejoin="round"/>
<path d="M27.0815 35.8369V28.0546C28.2737 27.4583 29.0271 26.2399 29.0271 24.9067V22.2179H30.4863C31.1313 22.2179 31.7499 22.4742 32.2062 22.93C32.662 23.3862 32.9183 24.0049 32.9183 24.6499V27.0818H36.3298C36.9198 27.0818 37.4782 27.3499 37.8474 27.81C38.2165 28.2706 38.3566 28.8732 38.2287 29.4496C37.8849 30.9969 37.4461 32.9721 37.1479 34.3136C36.95 35.2037 36.1605 35.8369 35.2486 35.8369H27.0815Z" stroke="#0E655B" stroke-width="2" stroke-miterlimit="10" stroke-linecap="round" stroke-linejoin="round"/>
<path d="M23.1904 35.8369H27.0816V28.0546H23.1904V35.8369Z" stroke="#0E655B" stroke-width="2" stroke-miterlimit="10" stroke-linecap="round" stroke-linejoin="round"/>
</g>
</g>
</g>
<defs>
<filter id="filter0_ii_2038_4466" x="-1.3258" y="-1.3258" width="63.9774" height="63.9774" filterUnits="userSpaceOnUse" color-interpolation-filters="sRGB">
<feFlood flood-opacity="0" result="BackgroundImageFix"/>
<feBlend mode="normal" in="SourceGraphic" in2="BackgroundImageFix" result="shape"/>
<feColorMatrix in="SourceAlpha" type="matrix" values="0 0 0 0 0 0 0 0 0 0 0 0 0 0 0 0 0 0 127 0" result="hardAlpha"/>
<feOffset dx="2.65161" dy="2.65161"/>
<feGaussianBlur stdDeviation="4.41935"/>
<feComposite in2="hardAlpha" operator="arithmetic" k2="-1" k3="1"/>
<feColorMatrix type="matrix" values="0 0 0 0 1 0 0 0 0 1 0 0 0 0 1 0 0 0 0.45 0"/>
<feBlend mode="normal" in2="shape" result="effect1_innerShadow_2038_4466"/>
<feColorMatrix in="SourceAlpha" type="matrix" values="0 0 0 0 0 0 0 0 0 0 0 0 0 0 0 0 0 0 127 0" result="hardAlpha"/>
<feOffset dx="-1.3258" dy="-1.3258"/>
<feGaussianBlur stdDeviation="3.53548"/>
<feComposite in2="hardAlpha" operator="arithmetic" k2="-1" k3="1"/>
<feColorMatrix type="matrix" values="0 0 0 0 1 0 0 0 0 1 0 0 0 0 1 0 0 0 0.3 0"/>
<feBlend mode="normal" in2="effect1_innerShadow_2038_4466" result="effect2_innerShadow_2038_4466"/>
</filter>
<linearGradient id="paint0_linear_2038_4466" x1="7.89474" y1="-3.75" x2="61.0935" y2="59.0741" gradientUnits="userSpaceOnUse">
<stop stop-color="#BAFFF7"/>
<stop offset="1" stop-color="#18DECA"/>
</linearGradient>
<clipPath id="clip0_2038_4466">
<rect width="31" height="31" fill="white" transform="translate(14.5 14.5)"/>
</clipPath>
</defs>
</svg>
