<svg width="40" height="40" viewBox="0 0 40 40" fill="none" xmlns="http://www.w3.org/2000/svg">
<path d="M18.7895 0.920423C19.5048 0.376495 20.4952 0.376495 21.2105 0.920423L24.1933 3.18837C24.5845 3.48583 25.0715 3.62883 25.5614 3.5901L29.2968 3.29478C30.1927 3.22395 31.0258 3.75936 31.3336 4.6037L32.6167 8.12422C32.785 8.58596 33.1174 8.96957 33.5504 9.20185L36.8525 10.9729C37.6445 11.3977 38.0559 12.2985 37.8583 13.1752L37.0343 16.8305C36.9263 17.31 36.9985 17.8124 37.2373 18.2419L39.0577 21.5171C39.4942 22.3026 39.3533 23.2828 38.7131 23.9135L36.0437 26.5431C35.6936 26.888 35.4828 27.3498 35.4514 27.8402L35.2121 31.5796C35.1547 32.4764 34.5062 33.2249 33.6267 33.4093L29.9594 34.1783C29.4784 34.2792 29.0514 34.5536 28.7598 34.9493L26.5368 37.9657C26.0037 38.6891 25.0535 38.9681 24.2139 38.6478L20.713 37.312C20.2538 37.1368 19.7462 37.1368 19.287 37.312L15.7861 38.6478C14.9465 38.9681 13.9963 38.6891 13.4632 37.9657L11.2402 34.9493C10.9486 34.5536 10.5216 34.2792 10.0406 34.1783L6.37334 33.4093C5.4938 33.2249 4.84528 32.4764 4.78789 31.5796L4.5486 27.8402C4.51722 27.3498 4.30636 26.888 3.95626 26.5431L1.2869 23.9135C0.646703 23.2828 0.505766 22.3026 0.94235 21.5171L2.76272 18.2419C3.00148 17.8124 3.07371 17.31 2.96565 16.8305L2.14174 13.1752C1.94414 12.2985 2.35553 11.3977 3.14747 10.9729L6.44956 9.20185C6.88265 8.96957 7.21505 8.58596 7.38333 8.12422L8.66645 4.6037C8.97418 3.75936 9.80729 3.22395 10.7032 3.29478L14.4386 3.5901C14.9285 3.62883 15.4155 3.48583 15.8067 3.18837L18.7895 0.920423Z" fill="#90E8F8"/>
<path d="M16.5 20H23.5" stroke="#2A5961" stroke-width="1.3" stroke-linecap="round" stroke-linejoin="round"/>
<path d="M20 16.5L23.5 20L20 23.5" stroke="#2A5961" stroke-width="1.3" stroke-linecap="round" stroke-linejoin="round"/>
</svg>
