<svg width="22" height="21" viewBox="0 0 22 21" fill="none" xmlns="http://www.w3.org/2000/svg">
<path d="M10.0921 0.506637C10.4753 -0.168738 11.4485 -0.168739 11.8317 0.506636L14.72 5.59743C14.8624 5.84849 15.1064 6.02576 15.3892 6.08365L21.1234 7.25745C21.8841 7.41317 22.1848 8.33871 21.6609 8.91184L17.7118 13.2319C17.5171 13.445 17.4239 13.7318 17.4562 14.0186L18.1118 19.8349C18.1988 20.6065 17.4115 21.1785 16.7045 20.8574L11.3755 18.4365C11.1127 18.3171 10.8111 18.3171 10.5483 18.4365L5.21933 20.8574C4.51235 21.1785 3.72505 20.6065 3.81202 19.8349L4.46762 14.0186C4.49996 13.7318 4.40676 13.445 4.212 13.2319L0.262909 8.91184C-0.261002 8.33871 0.0397224 7.41317 0.800452 7.25745L6.53462 6.08365C6.81741 6.02576 7.0614 5.84849 7.20384 5.59743L10.0921 0.506637Z" fill="#EABC59"/>
</svg>
