<svg width="60" height="60" viewBox="0 0 60 60" fill="none" xmlns="http://www.w3.org/2000/svg">
<g filter="url(#filter0_ii_2035_3602)">
<rect width="60" height="60" rx="15" fill="url(#paint0_linear_2035_3602)"/>
<g clip-path="url(#clip0_2035_3602)">
<mask id="mask0_2035_3602" style="mask-type:luminance" maskUnits="userSpaceOnUse" x="14" y="14" width="32" height="32">
<path d="M44.5 44.9717V15.9717H15.5V44.9717H44.5Z" fill="white" stroke="white" stroke-width="2"/>
</mask>
<g mask="url(#mask0_2035_3602)">
<path d="M26.4277 27.7471H40.959C42.9653 27.7471 44.5918 29.3735 44.5918 31.3799L26.4277 33.1963V44.0947" stroke="#0E655B" stroke-width="2" stroke-miterlimit="10"/>
<path d="M17.3457 44.0947V24.1143C17.3457 20.1016 20.5986 16.8486 24.6113 16.8486H42.6848C43.738 16.8486 44.5918 17.7024 44.5918 18.7556C44.5918 19.7353 43.8494 20.5557 42.8746 20.6532L26.4277 22.2979V27.7471" stroke="#0E655B" stroke-width="2" stroke-miterlimit="10"/>
<path d="M26.4277 33.1963V44.0947" stroke="#0E655B" stroke-width="2" stroke-miterlimit="10"/>
<path d="M26.4277 27.7471H17.3457" stroke="#0E655B" stroke-width="2" stroke-miterlimit="10"/>
<path d="M42.7754 42.2783C42.7754 43.2815 41.9621 44.0947 40.959 44.0947C39.9558 44.0947 39.1426 43.2815 39.1426 42.2783C39.1426 41.2751 40.959 38.6455 40.959 38.6455C40.959 38.6455 42.7754 41.2751 42.7754 42.2783Z" stroke="#0E655B" stroke-width="2" stroke-miterlimit="10"/>
<path d="M14.5 44.0947H29.1523" stroke="#0E655B" stroke-width="2" stroke-miterlimit="10"/>
<path d="M42.7754 31.5615V35.0127H39.1426V31.9248" stroke="#0E655B" stroke-width="2" stroke-miterlimit="10"/>
</g>
</g>
</g>
<defs>
<filter id="filter0_ii_2035_3602" x="-1.3258" y="-1.3258" width="63.9774" height="63.9774" filterUnits="userSpaceOnUse" color-interpolation-filters="sRGB">
<feFlood flood-opacity="0" result="BackgroundImageFix"/>
<feBlend mode="normal" in="SourceGraphic" in2="BackgroundImageFix" result="shape"/>
<feColorMatrix in="SourceAlpha" type="matrix" values="0 0 0 0 0 0 0 0 0 0 0 0 0 0 0 0 0 0 127 0" result="hardAlpha"/>
<feOffset dx="2.65161" dy="2.65161"/>
<feGaussianBlur stdDeviation="4.41935"/>
<feComposite in2="hardAlpha" operator="arithmetic" k2="-1" k3="1"/>
<feColorMatrix type="matrix" values="0 0 0 0 1 0 0 0 0 1 0 0 0 0 1 0 0 0 0.45 0"/>
<feBlend mode="normal" in2="shape" result="effect1_innerShadow_2035_3602"/>
<feColorMatrix in="SourceAlpha" type="matrix" values="0 0 0 0 0 0 0 0 0 0 0 0 0 0 0 0 0 0 127 0" result="hardAlpha"/>
<feOffset dx="-1.3258" dy="-1.3258"/>
<feGaussianBlur stdDeviation="3.53548"/>
<feComposite in2="hardAlpha" operator="arithmetic" k2="-1" k3="1"/>
<feColorMatrix type="matrix" values="0 0 0 0 1 0 0 0 0 1 0 0 0 0 1 0 0 0 0.3 0"/>
<feBlend mode="normal" in2="effect1_innerShadow_2035_3602" result="effect2_innerShadow_2035_3602"/>
</filter>
<linearGradient id="paint0_linear_2035_3602" x1="7.89474" y1="-3.75" x2="61.0935" y2="59.0741" gradientUnits="userSpaceOnUse">
<stop stop-color="#BAFFF7"/>
<stop offset="1" stop-color="#18DECA"/>
</linearGradient>
<clipPath id="clip0_2035_3602">
<rect width="31" height="31" fill="white" transform="translate(14.5 14.5)"/>
</clipPath>
</defs>
</svg>
