<svg width="60" height="60" viewBox="0 0 60 60" fill="none" xmlns="http://www.w3.org/2000/svg">
<g filter="url(#filter0_ii_2035_3634)">
<rect width="60" height="60" rx="15" fill="url(#paint0_linear_2035_3634)"/>
<g clip-path="url(#clip0_2035_3634)">
<path d="M19.1235 27.3152L32.9098 41.1014" stroke="#0E655B" stroke-width="2" stroke-miterlimit="10"/>
<path d="M40.5088 33.2596L26.8608 19.6116" stroke="#0E655B" stroke-width="2" stroke-miterlimit="10"/>
<path d="M35.7882 33.6861L34.5015 32.3994" stroke="#0E655B" stroke-width="2" stroke-miterlimit="10"/>
<path d="M31.9283 34.973L30.6416 33.6863" stroke="#0E655B" stroke-width="2" stroke-miterlimit="10"/>
<path d="M31.9283 29.826L30.6416 28.5393" stroke="#0E655B" stroke-width="2" stroke-miterlimit="10"/>
<path d="M28.068 31.1127L26.7812 29.8259" stroke="#0E655B" stroke-width="2" stroke-miterlimit="10"/>
<path d="M28.068 25.9657L26.7812 24.679" stroke="#0E655B" stroke-width="2" stroke-miterlimit="10"/>
<path d="M32.2039 42.1116L34.7773 44.6851L44.2134 35.249L41.6399 32.6755L32.2039 42.1116Z" stroke="#0E655B" stroke-width="2" stroke-miterlimit="10"/>
<path d="M15.7869 25.6946L18.3604 28.2681L27.7964 18.832L25.2229 16.2586L15.7869 25.6946Z" stroke="#0E655B" stroke-width="2" stroke-miterlimit="10"/>
<path d="M38.2088 41.2539L40.7822 43.8274L43.3557 41.2539L40.7822 38.6805L38.2088 41.2539Z" stroke="#0E655B" stroke-width="2" stroke-miterlimit="10"/>
<path d="M16.6448 19.6897L19.2183 22.2632L21.7917 19.6897L19.2183 17.1163L16.6448 19.6897Z" stroke="#0E655B" stroke-width="2" stroke-miterlimit="10"/>
</g>
</g>
<defs>
<filter id="filter0_ii_2035_3634" x="-1.3258" y="-1.3258" width="63.9774" height="63.9774" filterUnits="userSpaceOnUse" color-interpolation-filters="sRGB">
<feFlood flood-opacity="0" result="BackgroundImageFix"/>
<feBlend mode="normal" in="SourceGraphic" in2="BackgroundImageFix" result="shape"/>
<feColorMatrix in="SourceAlpha" type="matrix" values="0 0 0 0 0 0 0 0 0 0 0 0 0 0 0 0 0 0 127 0" result="hardAlpha"/>
<feOffset dx="2.65161" dy="2.65161"/>
<feGaussianBlur stdDeviation="4.41935"/>
<feComposite in2="hardAlpha" operator="arithmetic" k2="-1" k3="1"/>
<feColorMatrix type="matrix" values="0 0 0 0 1 0 0 0 0 1 0 0 0 0 1 0 0 0 0.45 0"/>
<feBlend mode="normal" in2="shape" result="effect1_innerShadow_2035_3634"/>
<feColorMatrix in="SourceAlpha" type="matrix" values="0 0 0 0 0 0 0 0 0 0 0 0 0 0 0 0 0 0 127 0" result="hardAlpha"/>
<feOffset dx="-1.3258" dy="-1.3258"/>
<feGaussianBlur stdDeviation="3.53548"/>
<feComposite in2="hardAlpha" operator="arithmetic" k2="-1" k3="1"/>
<feColorMatrix type="matrix" values="0 0 0 0 1 0 0 0 0 1 0 0 0 0 1 0 0 0 0.3 0"/>
<feBlend mode="normal" in2="effect1_innerShadow_2035_3634" result="effect2_innerShadow_2035_3634"/>
</filter>
<linearGradient id="paint0_linear_2035_3634" x1="7.89474" y1="-3.75" x2="61.0935" y2="59.0741" gradientUnits="userSpaceOnUse">
<stop stop-color="#BAFFF7"/>
<stop offset="1" stop-color="#18DECA"/>
</linearGradient>
<clipPath id="clip0_2035_3634">
<rect width="31" height="31" fill="white" transform="translate(14.5 14.5)"/>
</clipPath>
</defs>
</svg>
