<svg width="40" height="40" viewBox="0 0 40 40" fill="none" xmlns="http://www.w3.org/2000/svg">
<path d="M0 20C0 8.95431 8.95431 0 20 0C31.0457 0 40 8.95431 40 20C40 31.0457 31.0457 40 20 40C8.95431 40 0 31.0457 0 20Z" fill="#F9FAFB"/>
<path d="M20 20H20.0083" stroke="#35393D" stroke-width="1.3" stroke-linecap="round" stroke-linejoin="round"/>
<path d="M23.3332 15.0003V13.3337C23.3332 12.8916 23.1576 12.4677 22.845 12.1551C22.5325 11.8426 22.1085 11.667 21.6665 11.667H18.3332C17.8911 11.667 17.4672 11.8426 17.1547 12.1551C16.8421 12.4677 16.6665 12.8916 16.6665 13.3337V15.0003" stroke="#35393D" stroke-width="1.3" stroke-linecap="round" stroke-linejoin="round"/>
<path d="M28.3332 20.833C25.8605 22.4655 22.9628 23.3358 19.9998 23.3358C17.0369 23.3358 14.1392 22.4655 11.6665 20.833" stroke="#35393D" stroke-width="1.3" stroke-linecap="round" stroke-linejoin="round"/>
<path d="M26.6665 15H13.3332C12.4127 15 11.6665 15.7462 11.6665 16.6667V25C11.6665 25.9205 12.4127 26.6667 13.3332 26.6667H26.6665C27.587 26.6667 28.3332 25.9205 28.3332 25V16.6667C28.3332 15.7462 27.587 15 26.6665 15Z" stroke="#35393D" stroke-width="1.3" stroke-linecap="round" stroke-linejoin="round"/>
</svg>
