<svg width="40" height="40" viewBox="0 0 40 40" fill="none" xmlns="http://www.w3.org/2000/svg">
<path d="M0 20C0 8.95431 8.95431 0 20 0C31.0457 0 40 8.95431 40 20C40 31.0457 31.0457 40 20 40C8.95431 40 0 31.0457 0 20Z" fill="#F9FAFB"/>
<path d="M22.2502 15.2505C22.0975 15.4062 22.012 15.6157 22.012 15.8338C22.012 16.0519 22.0975 16.2614 22.2502 16.4171L23.5836 17.7505C23.7393 17.9032 23.9488 17.9887 24.1669 17.9887C24.385 17.9887 24.5945 17.9032 24.7502 17.7505L27.3386 15.163C27.6052 14.8946 28.0577 14.9796 28.1577 15.3446C28.4095 16.2604 28.3953 17.2289 28.1167 18.1368C27.8381 19.0447 27.3067 19.8546 26.5847 20.4715C25.8627 21.0885 24.9799 21.487 24.0396 21.6205C23.0993 21.7541 22.1405 21.617 21.2752 21.2255L14.6836 27.8171C14.352 28.1485 13.9024 28.3347 13.4337 28.3346C12.9649 28.3345 12.5154 28.1482 12.184 27.8167C11.8526 27.4852 11.6664 27.0356 11.6665 26.5668C11.6666 26.0981 11.8529 25.6485 12.1844 25.3171L18.7761 18.7255C18.3845 17.8602 18.2475 16.9014 18.381 15.9611C18.5145 15.0208 18.9131 14.138 19.53 13.416C20.147 12.694 20.9568 12.1626 21.8647 11.884C22.7727 11.6054 23.7412 11.5912 24.6569 11.843C25.0219 11.943 25.1069 12.3946 24.8394 12.663L22.2502 15.2505Z" stroke="#35393D" stroke-width="1.3" stroke-linecap="round" stroke-linejoin="round"/>
</svg>
