<svg width="35" height="35" viewBox="0 0 35 35" fill="none" xmlns="http://www.w3.org/2000/svg">
<path d="M2.18757 2.38078C-0.56285 5.23766 6.67945e-05 8.27245 6.67945e-05 17.492C6.67945e-05 25.1483 -1.33577 32.8235 5.65548 34.6304C7.83861 35.1918 27.1819 35.1918 29.3622 34.6275C32.273 33.8764 34.6413 31.5154 34.9651 27.3985C35.0103 26.8239 35.0103 8.17037 34.9636 7.58412C34.6194 3.19891 31.9201 0.671617 28.3632 0.159742C27.548 0.0416167 27.3847 0.00661673 23.2022 -0.000674933C8.36652 0.00661673 5.11444 -0.654008 2.18757 2.38078Z" fill="#1C8ADB"/>
<path d="M27.4695 9.0658L27.1075 9.19705L7.46378 16.2746C7.32457 16.3177 7.20358 16.4057 7.11978 16.5249C7.03597 16.6441 6.99408 16.7877 7.00068 16.9333C7.00727 17.0788 7.06198 17.2181 7.15622 17.3292C7.25047 17.4403 7.37892 17.5171 7.52145 17.5473L12.6064 18.9394L13.555 21.7235L14.5036 24.5076C14.558 24.644 14.645 24.7652 14.7569 24.8604C14.8689 24.9556 15.0024 25.0221 15.1458 25.054C15.2892 25.086 15.4383 25.0824 15.5801 25.0437C15.7218 25.0049 15.852 24.9322 15.9592 24.8317L18.5862 22.3499L23.7447 25.8479C24.3751 26.2775 25.274 25.9593 25.4351 25.2513L28.8516 10.1556C29.0186 9.40785 28.2311 8.79336 27.4695 9.0658ZM24.9618 12.4167L16.0865 19.6712L15.6689 20.0132C15.5772 20.086 15.5173 20.1915 15.5018 20.3076L15.4084 21.0792L15.1518 23.2468C15.154 23.2731 15.1455 23.2993 15.1283 23.3194C15.1112 23.3395 15.0867 23.352 15.0604 23.3542C15.034 23.3563 15.0079 23.3478 14.9877 23.3307C14.9676 23.3135 14.9551 23.2891 14.953 23.2627L14.2311 21.0971L13.4854 18.8797C13.4538 18.7801 13.458 18.6725 13.4972 18.5756C13.5364 18.4787 13.6082 18.3985 13.7001 18.3488L22.9354 13.055L24.6734 12.0607C24.926 11.9135 25.1845 12.2337 24.9618 12.4167Z" fill="white"/>
</svg>
