<svg width="35" height="35" viewBox="0 0 35 35" fill="none" xmlns="http://www.w3.org/2000/svg">
<g clip-path="url(#clip0_3268_335)">
<path d="M2.18757 2.38078C-0.56285 5.23766 6.67945e-05 8.27245 6.67945e-05 17.492C6.67945e-05 25.1483 -1.33577 32.8235 5.65548 34.6304C7.83861 35.1918 27.1819 35.1918 29.3622 34.6275C32.273 33.8764 34.6413 31.5154 34.9651 27.3985C35.0103 26.8239 35.0103 8.17037 34.9636 7.58412C34.6194 3.19891 31.9201 0.671617 28.3632 0.159742C27.548 0.0416167 27.3847 0.00661673 23.2022 -0.000674933C8.36652 0.00661673 5.11444 -0.654008 2.18757 2.38078Z" fill="#4169E1"/>
<path d="M28.0228 23.5434C27.5137 23.615 25.0239 23.5434 24.8947 23.5434C24.251 23.5516 23.6301 23.3058 23.1665 22.8593C22.6415 22.3542 22.1722 21.7974 21.6591 21.2684C21.5074 21.1078 21.3432 20.9595 21.1679 20.8249C20.7583 20.5087 20.3526 20.5803 20.1597 21.0635C20.009 21.5858 19.9039 22.12 19.8455 22.6604C19.8117 23.1496 19.5015 23.4559 18.9526 23.4897C18.6126 23.5076 18.2725 23.5135 17.9364 23.5056C16.7116 23.4978 15.5061 23.2 14.4185 22.6366C13.2418 21.9808 12.2165 21.0843 11.4097 20.0056C10.0833 18.3113 9.02334 16.4499 8.07675 14.5309C8.02704 14.4354 7.05658 12.3712 7.03272 12.2738C6.94522 11.9476 7.03272 11.6354 7.30119 11.528C7.47221 11.4624 10.6699 11.528 10.7236 11.528C10.9614 11.526 11.1936 11.5996 11.3866 11.7384C11.5797 11.8771 11.7236 12.0737 11.7975 12.2996C12.3886 13.8132 13.1979 15.2322 14.1998 16.5116C14.34 16.6826 14.5041 16.8327 14.687 16.957C14.9475 17.134 15.1941 17.0724 15.3015 16.7721C15.4287 16.3554 15.5035 15.9246 15.5242 15.4894C15.5421 14.6263 15.5242 14.0576 15.4765 13.1965C15.4447 12.6437 15.2498 12.1584 14.4344 12.0033C14.1839 11.9596 14.162 11.7528 14.3231 11.5459C14.6591 11.1164 15.1185 11.0488 15.6336 11.0229C16.4012 10.9792 17.1688 11.009 17.9364 11.0229H18.1035C18.4375 11.0217 18.7708 11.0557 19.0978 11.1243C19.2911 11.1634 19.4665 11.2639 19.598 11.4109C19.7296 11.5578 19.8101 11.7433 19.8276 11.9397C19.8669 12.1575 19.8835 12.3787 19.8773 12.5999C19.8574 13.5425 19.8117 14.4832 19.8018 15.4258C19.7926 15.799 19.8266 16.172 19.9032 16.5374C20.0126 17.0385 20.3566 17.1638 20.6986 16.8019C21.1415 16.334 21.5477 15.8327 21.9137 15.3025C22.5608 14.3361 23.0946 13.2985 23.5046 12.2101C23.7273 11.6513 23.9023 11.528 24.4989 11.528H27.8915C28.0933 11.5245 28.2944 11.5513 28.4881 11.6076C28.5567 11.6256 28.6208 11.6576 28.6765 11.7015C28.7321 11.7455 28.7781 11.8005 28.8115 11.863C28.8449 11.9255 28.865 11.9943 28.8707 12.065C28.8763 12.1357 28.8672 12.2067 28.8441 12.2738C28.677 13.0175 28.2753 13.6519 27.8498 14.2624C27.1597 15.2408 26.4319 16.1934 25.7259 17.1559C25.6366 17.2835 25.5549 17.4163 25.4813 17.5536C25.2148 18.0329 25.2347 18.3013 25.6205 18.701C26.237 19.3334 26.8952 19.928 27.4898 20.5803C27.9264 21.0545 28.3203 21.5662 28.6671 22.1096C29.1026 22.7837 28.8341 23.428 28.0228 23.5434Z" fill="white"/>
</g>
<defs>
<clipPath id="clip0_3268_335">
<rect width="35" height="35" fill="white"/>
</clipPath>
</defs>
</svg>
